<svg id="Layer_1" data-name="Layer 1" xmlns="http://www.w3.org/2000/svg" viewBox="0 0 212.06 74.22"><polygon points="42.64 69.83 42.64 69.83 42.64 69.83 42.64 69.83" style="fill:#382f2d"/><polygon points="58.25 36.65 58.25 36.65 58.25 36.65 58.25 36.65" style="fill:#382f2d"/><path d="M59,70.41c.21-.21.14-.27.3-.52s.19-.23.35-.48.1-.29.25-.55.2-.23.36-.48.21-.23.32-.5a2.94,2.94,0,0,0,.12-.59c.07-.29.11-.28.18-.57s0-.3.09-.59.11-.28.18-.57a3.83,3.83,0,0,0,.1-.59,2.74,2.74,0,0,0,0-.57c0-.28,0-.28,0-.57s-.08-.28-.08-.57,0-.28,0-.57.07-.29.07-.57v-.57c0-.28,0-.28,0-.57s0-.28-.06-.57,0-.28,0-.56l0-.57c0-.29,0-.29,0-.57s-.06-.29-.06-.57,0-.29,0-.57.06-.29.06-.57-.07-.29-.06-.57,0-.29,0-.57.06-.29.07-.57-.06-.29-.06-.57,0-.29,0-.57.08-.29.08-.57,0-.28,0-.57,0-.28,0-.57,0-.28,0-.57,0-.28,0-.57,0-.28,0-.57,0-.28,0-.57-.06-.28-.07-.57V49c0-.28,0-.28,0-.57s-.06-.28-.06-.57,0-.28,0-.56l0-.57c0-.29,0-.29,0-.57s0-.29,0-.57,0-.28,0-.57,0-.28,0-.57-.07-.28-.07-.57.06-.28.07-.57,0-.29,0-.57,0-.29,0-.57,0-.29,0-.57.08-.28.08-.57-.07-.28-.07-.57.05-.28.05-.57,0-.28,0-.56V39.3l-.05-.09.05,0c0-.19,0-.22,0-.47s.07-.29.08-.57a3.55,3.55,0,0,0,0-.57c0-.15,0-.23,0-.31h-.23l.22-.06c0-.06,0-.12-.05-.22-.07-.29-.08-.29-.15-.58s-.07-.29-.13-.5h0l0-.08c-.06-.29,0-.3-.08-.59h0l0-.18h0a2.76,2.76,0,0,0-.14-.38c-.11-.27-.18-.23-.34-.49s-.12-.27-.28-.53a2.34,2.34,0,0,1-.13-.22v0a.12.12,0,0,1-.09.08l-.19.06.13-.16s0,0,.07-.05l.07,0a2.07,2.07,0,0,0-.13-.25c-.16-.26-.23-.22-.38-.47s0-.34-.26-.55-.28-.13-.53-.28L58,31.65h0l0,0,.08.1H58v.05l0,0v0l-.17.12v0h0l-.06-.06h0l0,.09-.11,0h-.09v-.06l0-.08a.43.43,0,0,0,0-.05l0-.08h.12a.2.2,0,0,1,0-.09.39.39,0,0,1-.06-.17v-.06a1.45,1.45,0,0,0-.2-.15L57.11,31l-.07.06L57,31l-.06,0a2.31,2.31,0,0,0-.52-.31c-.28-.12-.3-.05-.59-.12s-.29-.09-.58-.16-.28-.08-.57-.15-.31,0-.6-.07-.28-.14-.58-.14a1.7,1.7,0,0,0-.58.11c-.29.07-.28.11-.57.18s-.3,0-.59.11-.28.1-.57.17a2.32,2.32,0,0,0-.58.13c-.27.11-.24.16-.5.32s-.24.17-.5.33-.26.13-.52.29-.28.1-.53.26a1.72,1.72,0,0,0-.49.34c-.21.21-.15.26-.31.51s-.21.23-.36.48-.09.3-.25.55l-.32.5c-.16.26-.25.21-.36.49a2.81,2.81,0,0,0-.12.59c-.06.29-.08.29-.14.58s0,.3-.09.59-.07.29-.13.58a3,3,0,0,0-.14.57,3.62,3.62,0,0,0,0,.57c0,.29-.05.29,0,.57s0,.29,0,.57,0,.29,0,.57,0,.29,0,.57,0,.29,0,.57,0,.28,0,.57,0,.28,0,.57,0,.28,0,.57,0,.28,0,.57,0,.28,0,.56,0,.29,0,.57.07.29.07.57-.07.29-.07.58l0,.57c0,.28.06.28.05.57s0,.28,0,.57,0,.28,0,.57-.11.28-.11.56.07.29.07.57,0,.29,0,.57-.07.28-.07.57,0,.28,0,.57.05.28.05.57-.06.28-.06.57l0,.57c0,.28,0,.29,0,.57s.08.28.08.57-.06.28,0,.57,0,.28,0,.57,0,.28,0,.57,0,.28,0,.57-.1.28-.09.56.09.29.09.57,0,.29,0,.57v.57c0,.29,0,.29,0,.57s0,.29,0,.57,0,.29,0,.57,0,.29,0,.57,0,.29,0,.57.08.29.07.57v.57c0,.28-.07.28-.07.57s0,.28,0,.57,0,.28,0,.57,0,.28,0,.56-.09.3-.06.58.12.28.19.57,0,.31.09.6.08.28.14.58.11.28.17.57a2.84,2.84,0,0,0,.19.56,3.28,3.28,0,0,0,.24.54l.32.51c.15.25.22.21.38.46s.09.3.25.55a1.67,1.67,0,0,0,.33.5c.21.21.26.15.51.31s.27.14.52.3.27.14.52.29.22.2.48.36a2.23,2.23,0,0,0,.5.32c.28.11.31,0,.61.07s.28.11.57.18l.58.13c.29.07.28.11.57.18a1.64,1.64,0,0,0,.58.06c.3,0,.29-.06.57-.14s.31,0,.6-.09.29,0,.58-.11.28-.11.57-.18a2,2,0,0,0,.57-.17,2.37,2.37,0,0,0,.53-.26c.25-.16.26-.14.52-.29s.25-.17.5-.32.24-.19.49-.35S58.74,70.62,59,70.41Zm1.93-32.1-.08,0v-.15l.13,0v.14Zm0-.34H61v.15h-.14l0-.13Zm-.14-.72-.13,0,0-.09-.14-.48Zm-.33.52h.06l0,.13-.12,0-.05-.15Zm-.49-.39v0l.05,0v.14h0v.09l-.09-.08h0v0a0,0,0,0,1,0,0l0,0Zm-.28,1.51,0,.15-.13,0-.06-.18Zm-.38-2.28.2,0v.07a.1.1,0,0,1-.08.12l-.06,0,0-.06h0Zm-9.18-3.85,0,0v0h0v0l-.09,0v-.08a.08.08,0,0,0,0,0l0,0,0-.08v-.05h0v-.4l.11.37.08,0v0h0v.09a0,0,0,0,0,0,0h0l0,.07.09,0,0,.15h-.08l-.07,0Zm.25,2.64h-.09l0,0h0v0l0-.12h.17l0,0s0,.06,0,.08Zm0-1.17-.19,0v-.09h0V34l.12,0,.1.17-.06,0Zm0-2h0l-.07,0h0v0l0-.08,0,0,0,0h0v-.08l.15,0,0,.13,0,0,0,0v0h0l0,0,0,0ZM51,36.14l0,0h-.08a.15.15,0,0,1-.12,0l0-.05,0,0,0,0,.06-.05.07,0L51,36l.06.09Zm.32,1-.13,0V37l.14,0Zm0-2.54V34.5a.15.15,0,0,1,0-.07l0-.17.14.26ZM51.73,32l0,.06-.09,0,0,0,0,0-.3-.1.3,0-.1-.3.07.09h0l.13,0,0,.06.05.12,0,.05-.07.05Zm2.43,1.82.1-.1v.14a.13.13,0,0,1,0,.1l-.1.09v-.14A.12.12,0,0,1,54.16,33.84Zm-.45-1.43.17.55-.2.06,0-.12h0Zm-1.77-.12.13,0,0,.06a.38.38,0,0,1,0,.1v.08l-.1,0,0,0a.13.13,0,0,1,0-.06l0-.06h0Zm0,5.76,0,0,0,0h0l.13-.13L52,38v0l0,.17-.12-.12A.1.1,0,0,1,51.9,38.05Zm.24,1.55h-.07l0,0v-.05h0l0,0-.05,0,0,0v0l.07,0,.07,0v.18Zm2.66,6.64c0,.29,0,.29,0,.57s-.07.28-.08.56,0,.28,0,.56,0,.28,0,.56,0,.29,0,.57,0,.28,0,.56,0,.28,0,.56.07.28.06.56,0,.29,0,.57,0,.28,0,.56,0,.28,0,.57,0,.28,0,.56,0,.28,0,.56v.57l0,.56c0,.28,0,.28,0,.56s0,.28,0,.56-.06.28-.06.57,0,.28,0,.56,0,.28,0,.56,0,.28,0,.56.07.28.07.57,0,.28,0,.56-.06.28-.06.56,0,.29,0,.57,0,.28,0,.56,0,.28,0,.56V62c0,.28,0,.28,0,.56s0,.28,0,.56-.06.28-.06.56,0,.28,0,.56,0,.29,0,.57.07.26,0,.48-.17.17-.35.35-.1.27-.33.37-.25,0-.5,0-.27.06-.49,0-.17-.19-.34-.37-.29-.1-.38-.33.06-.26.05-.5-.07-.29-.08-.57.06-.28.06-.56,0-.29,0-.57-.06-.28-.07-.56,0-.28,0-.56,0-.28,0-.57.1-.28.1-.56-.09-.28-.09-.56,0-.28,0-.56.06-.28,0-.56,0-.29,0-.57-.06-.28-.06-.56.06-.28.07-.56v-.57c0-.28,0-.28.05-.56s-.07-.28-.07-.57.07-.28.08-.56,0-.28,0-.56,0-.28,0-.56,0-.29,0-.57.1-.28.11-.56-.08-.28-.08-.56,0-.28,0-.56,0-.28,0-.57,0-.28,0-.56,0-.28,0-.56,0-.29,0-.57,0-.28,0-.56,0-.28,0-.56-.09-.28-.09-.57,0-.28,0-.56,0-.28,0-.56,0-.28,0-.56-.06-.28-.07-.56,0-.29,0-.57,0-.28,0-.56,0-.28,0-.56.05-.29.06-.57v-.56c0-.28,0-.28,0-.57s-.06-.28,0-.56.08-.28.09-.56,0-.28,0-.56-.08-.29-.07-.57.07-.28.08-.5h0l0,0,0-.1.1,0,0,0c0-.19,0-.23,0-.47s0-.28,0-.56,0-.28,0-.56-.12-.29,0-.51.23-.15.41-.32.11-.26.34-.35a.79.79,0,0,1,.48-.07c.25,0,.27,0,.5,0s.18.18.35.36.23.13.32.36a.82.82,0,0,1,.07.49,5.24,5.24,0,0,1,0,.56c0,.28,0,.28,0,.56s-.06.29-.06.57.06.28.07.56,0,.28,0,.57,0,.28,0,.56,0,.28,0,.56-.05.28,0,.56.06.28.06.56,0,.28,0,.57,0,.28,0,.56,0,.28,0,.56.07.28.07.57-.08.28-.09.56S54.8,46,54.8,46.24ZM55.16,40l0-.13h0s0,0,0-.06l0-.07h0l0-.17.15.14h0l0,.06,0,.12Zm0-3.37,0-.08,0-.09.09,0,0,.06,0,.1Zm3.9,4-.05,0-.23-.12h.34l0,.14Zm-.14-7.39H59l0-.08h.17l0,0a.29.29,0,0,0,0,.08l0,0-.11.11,0,0s0,0-.12,0h-.08Zm.07.27.14.46-.2-.26,0-.06,0-.05Zm-.51.62a.26.26,0,0,1,.1-.11l.07,0,0,0,.12-.07.1.19h-.12v.11h-.09a.2.2,0,0,1-.11,0h0l-.05,0,0,0,0,0Zm-.51,0,.08.12-.07,0-.07,0-.07,0,0-.16Zm-.19,1,0,0a.46.46,0,0,1,.14-.07H58l0,0,.05,0,0,0v0a.1.1,0,0,1,0,.07v.09l-.16,0v0h-.06c-.07,0-.09,0-.11-.1l0,0,0,0Zm-.19,5.46-.22,0,0,0a.3.3,0,0,1,0-.08l-.18-.41.28.35,0,0Zm-.7-1.3,0,0-.06-.06V39.2l.2,0v.19l-.09,0h0Zm.09-.8.14,0,0,.06s0,0,0,.06l0,.08-.07,0a.21.21,0,0,1,0-.06Zm.05,1.8h0l0-.46.17.53-.21.06Zm.13-.36v-.07a.15.15,0,0,1,0-.09l.07-.09.08.24Zm.37-.11,0,.17-.19.06,0-.13Zm-.33-4.11h.14l.08.13-.22,0Zm-.25-.35a.31.31,0,0,1,.09-.07l0-.16.16.07v.09h0v0a.09.09,0,0,0,0,.05v.06l-.1,0,.07.11H57l0,0-.06-.12h0v0l0,0Zm-.09-3.54,0,.13-.12.08-.05-.17Zm-1.19.53,0-.11,0,.05,0-.14h0l0,0,0,0h0V32l0-.09.2-.09L56,32h0v0l-.09,0,0,0h0l.12,0,0,.09,0,.05-.14,0,.07.22-.15-.21-.12.06,0,.06,0,0v.06l-.11,0,0,0,0,0v-.07Zm-.12,7.11-.13,0-.07-.21h.06l-.06-.12,0,0v0h0l0-.46.17.56h0v.09h.08l0,.09Zm.21-5.83v-.11l.11,0,.06.07,0,0a0,0,0,0,0,0,0v0l-.13,0,0,0-.1-.06Zm.05,5.87h-.09v-.06l0-.27.06.19h0l0,.18Zm.29-1.59,0,0,0,0s0,0,0,0-.05,0-.07,0l-.08-.07.08,0v0l.09,0,0,.05h0l.1.2Zm.21-6.2v-.14l.05,0,0,0,0,.05,0,.07Zm.28,1.14h-.11l0-.08,0,0a.14.14,0,0,0,0-.06v0l.1,0,0,.06,0,.16Zm.13.48,0,0,0-.11v-.09h.14v.13l-.11.08Zm0,6.32.11-.08.1.18-.16.09Zm.67,29.89a.22.22,0,0,1-.13.14l-.07,0-.07-.27h.32Zm0-27.14h0v0l-.12,0,0-.12.13,0,0,.07Zm.11-1.49h-.13l0,.25L57.26,41l-.34.1-.08,0,0-.14a.12.12,0,0,1,.09-.09l.17-.07,0,0,0-.06h0a.13.13,0,0,1,.1-.09l0,0,.07.11,0,0h.09l.18,0-.13.12Zm.08-1,0-.08a.36.36,0,0,1,0-.09l.07-.12.07.23,0,0,0,0h0l0,0,0,0h-.12Zm.27,1.67-.14,0,0-.13h.06l.09-.06,0,.13,0,0Zm0-5.26-.06-.21.13,0,0,0,0,0,0,0,0,0,0,0Zm.21.49L58,36.73l.12,0,0-.09.19,0,0,0,0,0,0,0a.85.85,0,0,1,.09.14l0,0-.08.06v0H58.2l0,0A.13.13,0,0,0,58.11,36.8Zm.4,1.26,0,0,0,0,.07-.06.06.18-.07,0h0l-.38.14Zm-.12,4.22a.12.12,0,0,1,.08-.06h0v0h0v0h.1v.06a.12.12,0,0,1-.05.14l-.07,0,0-.07h-.14Z" style="fill:#382f2d"/><path d="M15.28,69.54a1.62,1.62,0,0,0,.25-.51c.11-.26.16-.24.26-.51s0-.3.14-.56.12-.26.23-.52.09-.27.2-.54.23-.22.3-.49,0-.3.05-.58l.08-.57c0-.28.08-.28.12-.56s0-.29,0-.58,0-.28,0-.57.12-.27.11-.55-.07-.28-.12-.57,0-.31,0-.59-.16-.27-.21-.56,0-.3,0-.59-.1-.28-.15-.57,0-.29-.09-.58-.15-.26-.25-.53-.06-.3-.16-.57-.15-.26-.25-.54,0-.3-.11-.58-.15-.26-.25-.53,0-.31-.14-.58-.18-.24-.32-.5-.2-.23-.34-.49-.09-.28-.23-.54-.11-.28-.25-.53-.21-.22-.35-.48-.13-.27-.27-.53-.11-.27-.24-.53-.14-.26-.27-.53-.15-.25-.28-.51L12.5,51c-.13-.27-.12-.27-.26-.53s-.11-.27-.25-.53-.16-.22-.29-.46-.15-.22-.28-.46-.06-.28-.19-.51-.15-.22-.28-.46-.2-.2-.33-.43-.15-.23-.27-.47,0-.28-.15-.53-.06-.26-.16-.51-.1-.25-.21-.5-.15-.23-.26-.48-.07-.26-.17-.51-.1-.24-.19-.49S9,43.94,9,43.68s0-.28-.1-.53-.11-.25-.2-.51-.13-.23-.22-.49,0-.27-.11-.53a2.16,2.16,0,0,1-.16-.51,3.08,3.08,0,0,1,0-.53c0-.27-.08-.26-.1-.53s0-.27,0-.54,0-.27,0-.54-.06-.26-.08-.53S8,38.17,8,37.9s-.17-.38,0-.72.19-.3.43-.56.2-.32.53-.47.34,0,.7,0,.34-.09.63.07.24.2.43.48a1.18,1.18,0,0,1,.29.58,1.84,1.84,0,0,1,0,.66c0,.24,0,.24,0,.48a.62.62,0,0,1,0,.13l.15.05v.06l0,0,0,.11h-.09s0,.06,0,.1a3.93,3.93,0,0,1,0,.49c0,.24-.1.23-.12.48s0,.22,0,.31h0l0,0s0,0,0,0l0,0v0h.1v.08a.09.09,0,0,0,0,.05h.07v.07a.13.13,0,0,1,0,.06v0l-.09.09,0-.11-.09,0v0h0a1,1,0,0,1,.05.3,3.85,3.85,0,0,0,0,.48c0,.25,0,.25,0,.49a3.93,3.93,0,0,1,0,.49c0,.25-.05.24-.07.49s0,.25,0,.5-.18.29,0,.46.21,0,.47,0,.25,0,.5,0a4.29,4.29,0,0,1,.5-.07l.49,0c.24,0,.25,0,.49,0a4,4,0,0,0,.49,0c.24,0,.25.09.49.07l.49,0c.25,0,.24-.11.49-.11s.25.08.5.09.25,0,.5,0,.32.24.5.06,0-.25,0-.51,0-.26,0-.52-.05-.26-.05-.52a4.4,4.4,0,0,1,.05-.51c0-.25-.06-.26,0-.51a2.85,2.85,0,0,0,.07-1c0-.25-.07-.25-.08-.5a4.63,4.63,0,0,1,0-.51,4.2,4.2,0,0,1,0-.51c0-.25,0-.25.05-.51s.08-.25.06-.5a4,4,0,0,0-.11-.58c-.06-.29-.14-.27-.2-.56l-.12-.57c-.06-.28,0-.3-.05-.58a2.34,2.34,0,0,0-.14-.58,2.53,2.53,0,0,0-.26-.52c-.14-.26-.16-.25-.31-.5s-.16-.24-.31-.5-.17-.23-.31-.49,0-.34-.22-.55-.26-.16-.5-.32-.27-.14-.51-.3-.23-.19-.47-.35-.28-.1-.53-.26-.18-.27-.45-.39-.3,0-.59-.07-.27-.11-.56-.18-.27-.09-.56-.16-.29-.05-.57-.12-.28-.17-.57-.17-.27.17-.56.24-.3,0-.58.06-.29,0-.57.11-.27.1-.55.17l-.57.13a2.11,2.11,0,0,0-.56.15c-.26.13-.23.17-.46.36l-.44.36a1.68,1.68,0,0,0-.23.22l0,0h0a1.47,1.47,0,0,1-.17.15c-.22.18-.24.16-.46.34s-.24.16-.47.34-.32.1-.49.34-.07.3-.18.57L3.06,34v0l0,0,.1.09-.13,0v.1H3c0,.07,0,.14-.1.28s-.15.25-.26.52-.12.27-.23.54a2.56,2.56,0,0,0-.15.56,2.85,2.85,0,0,0-.16.55h0l0,0h0l0,0,0,0,0,0a.36.36,0,0,1-.12.08,1.6,1.6,0,0,1,0,.37c0,.29-.06.28-.1.57s0,.3,0,.58-.1.29-.14.57a2.25,2.25,0,0,0,0,.58,2.88,2.88,0,0,0,0,.59c.05.29.11.28.16.57s0,.3.05.59.07.29.12.58,0,.3,0,.59.11.28.17.57l0,.14.12.08v0l.1.09h0v0l0,0,.07.09H2.59v.1l-.09-.12h0l0,0h0l-.12-.17a2.73,2.73,0,0,0,.1.38c.08.28,0,.3.11.58s.1.28.18.56.15.27.24.55,0,.3.09.59a3.6,3.6,0,0,0,.22.54,3.7,3.7,0,0,0,.24.54c.13.27.17.25.29.52s.09.28.22.55.09.28.22.55.15.25.28.52.14.26.26.53.1.28.23.54.13.27.25.54.17.25.3.51l.26.53c.12.27.09.28.22.55a5.29,5.29,0,0,0,.32.5,4.17,4.17,0,0,0,.26.57c.16.27.2.25.36.52s.17.26.33.53.11.29.27.56.25.22.4.49,0,.33.18.61.2.26.33.54.1.3.24.58.18.26.32.54l.26.56c.13.29.1.3.23.59s.16.27.29.56.11.29.24.57.08.31.2.59.2.27.28.57a3.18,3.18,0,0,1,.07.62c0,.31,0,.31,0,.62s.09.31.12.62,0,.31.06.62,0,.31.06.62.15.44.05.84-.19.39-.44.72-.23.35-.6.52-.39.1-.8.1-.47.15-.84,0-.28-.33-.53-.65-.33-.29-.46-.68a2.27,2.27,0,0,1-.07-.82c0-.34,0-.34-.06-.68a5.22,5.22,0,0,1,0-.69c0-.34.06-.34.08-.68a5.15,5.15,0,0,0,0-.68,5.3,5.3,0,0,0,0-.69c0-.34-.1-.33-.1-.67a5.51,5.51,0,0,1,.06-.71c0-.35.25-.41.06-.7s-.26,0-.51,0-.25,0-.5,0a4.23,4.23,0,0,1-.5.05,4.07,4.07,0,0,1-.49-.05c-.24,0-.25.06-.49,0s-.25-.13-.49-.13a3.85,3.85,0,0,0-.49.08c-.25,0-.25,0-.49,0s-.24,0-.49,0-.25,0-.5,0l-.5,0c-.25,0-.31-.18-.48,0s0,.23,0,.49,0,.26,0,.52,0,.26,0,.52a4.46,4.46,0,0,1-.07.51c0,.25,0,.26,0,.51s-.1.25-.1.5a4.18,4.18,0,0,0,.07.51c0,.25,0,.26,0,.51s0,.25,0,.5a4.56,4.56,0,0,1,0,.51c0,.26-.08.25-.09.51a1.68,1.68,0,0,0,0,.5,2.52,2.52,0,0,0,.11.61c.07.3.05.31.12.61s.1.29.17.6.1.29.17.59A2.32,2.32,0,0,0,2,68a2.58,2.58,0,0,0,.32.53c.17.26.15.27.32.53l.34.52c.17.26.2.24.37.5s.07.34.3.55.29.14.56.29.28.13.55.28l.54.31c.27.14.26.16.54.31s.24.21.53.32.32,0,.62.1.32,0,.62.07l.61.12c.31.06.3.08.6.14a1.84,1.84,0,0,0,.61.09,1.18,1.18,0,0,0,.56-.08c.27-.08.26-.13.54-.2l.55-.14c.27-.07.29,0,.56-.09s.26-.11.54-.19a1.44,1.44,0,0,0,.52-.2c.25-.13.22-.16.43-.34s.24-.17.46-.35.25-.15.46-.33l.43-.37c.21-.19.19-.22.4-.4A1.48,1.48,0,0,0,15.28,69.54Zm-4-32.25v-.07l.1,0h0l0,0v.17l-.08,0h-.1v-.06A.25.25,0,0,1,11.26,37.29Zm-.6-1.08.08,0a.13.13,0,0,1,.11.08l0,0-.06,0,0,0-.07,0-.07,0v-.09l0-.1,0,0h0Zm-.18-1.08h.14l0,.14-.14,0Zm-.34-2.74a.11.11,0,0,1,0-.06v0h.08l0,0,.05,0,0,0v0l-.08,0h-.07ZM10.08,34v0l0,0h0l-.14.1,0-.17a.07.07,0,0,0,0-.05l0-.17.09.14S10.07,34,10.08,34ZM10,32.3l0,.17H9.92v0l0-.06,0-.07Zm-.86-1.91a.28.28,0,0,0,.11-.05l.05,0,.07,0,0,.08a.54.54,0,0,0,0,.11.45.45,0,0,1,.06.14l0,.07H9.39l0,0a.34.34,0,0,0,0-.08.16.16,0,0,1,0-.06l-.15.05-.11-.13ZM8.79,32a.3.3,0,0,1,0-.1.35.35,0,0,0,0-.06v0l.16,0,0,.13c0,.13,0,.16,0,.18H9L9,32.19l-.05-.07,0,0H8.78ZM8.72,33.9v-.08l.08,0a.13.13,0,0,1,.09.07l0,.08H8.84v.09h0v0H8.68l0-.23Zm-.27-3.31.06.14h-.1l-.08,0v-.1ZM2.74,36.81l.09,0,.07,0,0,.18-.2,0-.06-.14Zm-.59,2.72,0-.06h0v0l.19-.09v0h0l.07.09v0h0v-.09l.1,0h0l0,0,0,.06a.15.15,0,0,1,0,.08l0,0,0,.08H2.48a.31.31,0,0,1-.07.09.71.71,0,0,1,0,.2v.13h-.3v-.43s0,0,0,0L2,39.5ZM2.29,41l-.07,0-.09,0h0l0-.13h.08l.17,0Zm.14.11H2.3l.19-.13h0l.06,0v0l.06,0,0,.15h0l0,.12h0v.08l-.11-.08A.18.18,0,0,1,2.43,41.06Zm.08,1.46,0-.51.15.35,0,0h0v.11Zm.19-2-.22.1,0-.17,0,0,0,0,0,0h.06l0,0,.12,0Zm.15.09,0,0,0,0L3,40.51l0,.33Zm.29-4.76v.05h0a.53.53,0,0,1-.16,0h0l0,0H2.84v0l-.05-.05,0,0v0a.14.14,0,0,1,0-.07s0,0,0,0v-.05H3v0h.07c.07,0,.09.05.1.12v0Zm-.06-1v0h0v-.05l0,0,0,0,.09,0,0,.23Zm2.1,7.27,0,0-.05,0,0,.1,0-.11s0,0,0,0H5v0a.21.21,0,0,1,0-.06v0l.17,0v0h0Zm-.31-4.21s0,0,0,0v0l.14,0v.05l.11.08L5,38l0,.1-.1,0,0-.09Zm-.31-5.61,0-.08.06.06a.11.11,0,0,1,0,.06l0,.07-.16,0v-.07S4.56,32.34,4.56,32.32Zm-1,7.19,0,.18-.14,0v-.14ZM3.51,42.9v0l-.1-.09.23,0,0,.14Zm.4-7.64,0,.14-.13,0-.06-.14Zm-.14,2.86.13,0v0H4l-.05.1v.09l-.14,0Zm0,5,0-.19.08.08h0v.15ZM4,40.08H4a.12.12,0,0,1-.07,0H3.84L3.78,40,4,40ZM4,38.78a.16.16,0,0,0,0,.07l0,0h-.1v-.24H4l0,0v.08Zm0-2.94a.17.17,0,0,1-.1.06v.17L3.84,36v-.09h0v0a0,0,0,0,0,0-.05v-.06H4l0-.14.14,0,0,0,0,.15h0v0Zm.19,7.82v0s0,0,0,0l0-.08h0v0h.09l0,0v0l0,.08,0,.07Zm.16-1.14v-.07a.16.16,0,0,1,.05-.1l.11-.12,0,.28Zm.25,1.61,0,0H4.6l0-.11.09,0,0,0,.06.05.07.08Zm.15-4.73-.07.12,0-.09-.08.14h0l0,.07,0,0v0h0l0,.09s0,0,0,0v.08L4.43,40l0-.24h0v0h.1V39.6l-.14,0,0-.09v-.06l.16,0,0-.21.1.22.15,0v-.08s0,0,0,0v-.06h.12l0,.05s0,0,0,0v0Zm.4,3.9v.09H5.15l-.07,0-.22-.1.37,0Zm.43-9.75h-.1l0-.06h0l-.07-.24h.13l0,.06v0h0a.18.18,0,0,1,.07,0l.07.08H5.65Zm.46-2,.14.05h0v.08l-.1.25v-.21h0ZM6.3,35h0l0,0,0,0H6.17l0-.17.14,0,0,.09ZM6.62,32l0,0s0,0,0,0l-.07.45L6.44,32h0l0-.1h0l0,0h0v-.1l.06,0h.14l0,.23-.07,0Zm.17,6a.11.11,0,0,1,0,.09l-.11.09V38a.18.18,0,0,1,.06-.1l.12-.07Zm.06-6.69L7,31.2l0,.12v0l0,.08,0,.07H7v-.05h0v0H6.88l0-.06ZM7,39.21v0l-.07.46-.06-.57.22,0Zm.29-5.7,0-.16,0,0,.08-.08v.09h0l0,.08a.14.14,0,0,1,0,.07l0,0Zm.28,1.28-.09.05h0l0-.05,0,0,0,0a.11.11,0,0,1,0,0l0-.05.07,0h0v0h.18l0,.13,0,0Zm.18,7.93,0,0h0l0,0-.07.09-.08-.24.11,0h0l.08,0Zm-.07-9.14v0h0v-.08a.22.22,0,0,0,0-.09v-.08l.08,0c.09,0,.1.08.11.16v.05Z" style="fill:#382f2d"/><polygon points="57.19 40.85 57.15 40.85 57.14 40.84 57.03 40.98 57.2 40.85 57.19 40.85 57.19 40.85" style="fill:#382f2d"/><path d="M24.91,72.09A.35.35,0,0,0,25,72l0-.08c0-.12-.08-.21-.08-.42s0-.29,0-.58,0-.3,0-.59,0-.29,0-.58,0-.3,0-.59,0-.29,0-.59-.07-.29-.08-.58,0-.29,0-.59,0-.29,0-.58,0-.29,0-.58,0-.3,0-.59.07-.29.07-.58-.1-.3-.09-.59.07-.29.08-.59,0-.29,0-.58,0-.29,0-.59,0-.29,0-.58,0-.29,0-.59,0-.29,0-.58,0-.29,0-.58-.05-.3,0-.59.08-.29.09-.58,0-.29,0-.59,0-.29,0-.58,0-.29,0-.59-.05-.29-.05-.58,0-.3,0-.59,0-.29,0-.58-.06-.29-.06-.59.06-.29.05-.58,0-.29,0-.59,0-.29,0-.58,0-.29,0-.58,0-.29,0-.59,0-.29,0-.58.05-.29.05-.58,0-.3,0-.59,0-.29,0-.58,0-.29,0-.58,0-.29,0-.58.05-.29.05-.58v-.58c0-.29,0-.29,0-.58s0-.29,0-.58,0-.29,0-.58,0-.29,0-.58,0-.29,0-.58-.32-.63,0-.62.07.33.11.62.05.29.09.58,0,.29.09.58,0,.29.09.58,0,.3,0,.59,0,.29.07.58.09.28.13.57.06.29.1.58,0,.29.06.58,0,.29.09.58.06.29.1.58,0,.29,0,.58,0,.3.06.59l.08.59c0,.29.07.29.1.58s0,.3.06.59.06.29.09.58.07.29.11.58,0,.3.07.59,0,.29,0,.59.06.29.09.58,0,.3,0,.59.07.29.1.58,0,.3.07.59.08.28.13.58,0,.3,0,.59,0,.29.09.58l.08.59c.05.29.08.28.12.58s0,.29,0,.59.11.28.15.57,0,.3,0,.59.07.29.12.58,0,.29.06.59.09.28.14.57,0,.29.07.59.05.29.09.58,0,.31,0,.6l.06.59c0,.29,0,.29.06.59s.09.28.13.58.06.29.1.58,0,.29.05.59,0,.3,0,.59a.22.22,0,0,1,0,.08h0l0,.28,0,.23c0,.29.08.29.11.58s-.05.3,0,.6-.12.4.1.6.3,0,.57-.06a5,5,0,0,1,.55,0c.27,0,.27,0,.53,0a3.15,3.15,0,0,0,.53,0,3,3,0,0,0,.52,0c.26,0,.27,0,.53,0a5.06,5.06,0,0,1,.55,0c.27,0,.31.15.52,0s.1-.25.14-.55l.08-.59c0-.29.05-.29.09-.58s0-.31,0-.6.11-.28.15-.58,0-.3,0-.59.1-.29.14-.58.06-.29.1-.58,0-.3.06-.59.05-.29.09-.59,0-.3,0-.59.06-.29.11-.58,0-.3.08-.59.1-.29.15-.58,0-.3,0-.59.1-.29.15-.58,0-.29.09-.58,0-.3.09-.59.09-.28.14-.57,0-.3,0-.59.09-.29.14-.58,0-.3,0-.59.14-.28.19-.57,0-.3,0-.59,0-.3.06-.59.06-.29.1-.59,0-.29.07-.59,0-.29.07-.58.06-.29.1-.58.07-.29.11-.59,0-.3,0-.59,0-.29,0-.59.11-.28.15-.57,0-.31,0-.6.08-.29.12-.58S36,51.33,36,51s0-.29.1-.58.06-.29.11-.58,0-.3.06-.59,0-.29.08-.58,0-.3.08-.59.1-.28.15-.57,0-.3.06-.59,0-.29.09-.58.07-.29.11-.58,0-.29.06-.58.11-.28.16-.58-.24-.63.06-.61,0,.32,0,.61-.08.3-.08.59v.59c0,.29,0,.29,0,.58s0,.3,0,.59,0,.29,0,.58-.06.3-.06.59,0,.29,0,.58,0,.29,0,.59,0,.29,0,.59,0,.29,0,.59,0,.29-.05.58,0,.3,0,.59,0,.3,0,.59,0,.3,0,.59,0,.29,0,.59,0,.29,0,.58,0,.3,0,.59,0,.3,0,.59,0,.3,0,.59,0,.3,0,.59,0,.29,0,.59.07.29.07.59-.08.29-.07.59,0,.29,0,.58.06.3.07.59,0,.29,0,.59,0,.29,0,.59,0,.29,0,.59-.06.29-.07.58,0,.3,0,.59.07.3.07.59,0,.3,0,.59-.06.29-.07.59l0,.59a3.75,3.75,0,0,0,0,.58,3,3,0,0,0,.14.57c.07.28,0,.29.08.58s.16.27.21.55,0,.3,0,.59,0,.29,0,.58.08.29.13.57a5.9,5.9,0,0,0,.06.59c.07.28.05.29.11.57s.18.26.23.55,0,.3,0,.59.07.29.1.59-.16.37.07.54.31,0,.64,0,.34,0,.67,0,.33.05.65.07a2.37,2.37,0,0,0,.56,0l0-.32.09.17,0-.28,0,.43c.27,0,.29,0,.6,0s.32,0,.65,0,.34,0,.68,0,.44.25.71,0-.08-.33-.08-.62a1,1,0,0,1,0-.3h0l-.06-.16h0v0h0s0,0,0-.08c0-.29,0-.29,0-.58s-.06-.29-.06-.58.06-.29.05-.58-.07-.29-.07-.57.09-.29.08-.58,0-.29,0-.58,0-.29,0-.58-.07-.28-.07-.57,0-.29,0-.58,0-.29,0-.58.09-.29.08-.58,0-.29,0-.57v-.58c0-.29,0-.29,0-.58s0-.29,0-.58,0-.28,0-.57,0-.29,0-.58.05-.29.05-.58-.06-.29-.06-.58,0-.29,0-.58,0-.29,0-.58,0-.28,0-.57,0-.29,0-.58,0-.29,0-.58-.07-.29-.06-.57,0-.29,0-.58.07-.29.07-.58,0-.29,0-.57,0-.29,0-.58,0-.29,0-.58,0-.29,0-.58,0-.28,0-.57,0-.29,0-.58,0-.29,0-.58.08-.29.08-.58,0-.28,0-.57,0-.29,0-.58.08-.29.07-.58-.07-.29-.07-.58.07-.29.06-.58-.09-.28-.1-.57,0-.29,0-.58,0-.29,0-.58.08-.28.08-.57,0-.29,0-.58-.07-.29-.07-.58,0-.29,0-.57.05-.29.05-.58,0-.29,0-.58v-.58c0-.28,0-.28,0-.57s-.05-.29-.05-.58,0-.29,0-.58,0-.29,0-.58,0-.29,0-.58,0-.29,0-.58,0-.28,0-.57,0-.29,0-.58,0-.29,0-.58,0-.29,0-.58,0-.29,0-.57-.05-.29,0-.58,0-.29,0-.58.09-.29.09-.58,0-.29,0-.57,0-.29,0-.58,0-.29,0-.58,0-.29,0-.58,0-.29,0-.57.23-.35,0-.54-.27,0-.58,0-.3,0-.61,0H41.09c-.3,0-.3-.08-.6-.09s-.3,0-.6,0-.29,0-.59,0-.3,0-.6,0-.3,0-.6,0-.3,0-.6,0-.29,0-.59,0-.3,0-.6,0-.31,0-.61,0-.3-.05-.61-.06-.3-.05-.61-.06-.38-.2-.62,0,0,.3,0,.57l-.06.55c0,.27,0,.27-.08.54s0,.27-.07.54,0,.28,0,.55,0,.28,0,.55,0,.27-.07.55,0,.27-.07.54-.07.27-.11.54,0,.3-.08.61-.07.3-.12.6,0,.31-.07.61,0,.31,0,.62,0,.3-.08.61-.1.29-.15.59,0,.31,0,.62-.12.29-.16.59,0,.32,0,.62,0,.31-.08.61-.07.3-.1.61,0,.31,0,.61,0,.31-.07.61,0,.31-.07.61,0,.31,0,.62,0,.3-.07.61,0,.3-.09.6-.1.3-.14.6-.07.29-.11.6,0,.3-.06.6,0,.3-.07.6-.06.3-.1.6-.08.3-.12.6.27.61,0,.6-.05-.3-.09-.6,0-.3,0-.6-.09-.3-.13-.6,0-.31,0-.61l-.08-.6c0-.3-.1-.29-.14-.59s0-.31,0-.61,0-.3-.06-.6-.1-.3-.14-.61,0-.31,0-.61,0-.31-.07-.61-.05-.31-.08-.61,0-.31,0-.62-.08-.3-.11-.6,0-.31,0-.61,0-.31-.05-.62,0-.3-.06-.61-.09-.3-.13-.6-.06-.3-.1-.61l-.08-.6c-.05-.31-.06-.31-.11-.61s0-.3-.07-.61,0-.31,0-.61-.07-.3-.11-.6,0-.28,0-.55,0-.28-.05-.55,0-.27,0-.55-.13-.26-.15-.53,0-.28,0-.55,0-.27-.08-.54,0-.28,0-.55,0-.27,0-.55.11-.34-.11-.5-.29,0-.6,0-.32,0-.64,0-.32.05-.63.06-.32,0-.64,0-.31-.06-.62-.07-.31,0-.62,0-.32,0-.63,0H24.1c-.31,0-.32,0-.63,0l-.62,0c-.31,0-.31.09-.62.1s-.31,0-.63,0-.31,0-.63,0l-.64,0c-.32,0-.32-.07-.63-.08s-.41-.19-.65,0,0,.3,0,.59,0,.29,0,.58,0,.29,0,.58.07.29.07.58v.57c0,.29,0,.29,0,.58s0,.29,0,.58.05.29.05.58,0,.29,0,.58.06.28.07.57-.06.29,0,.58,0,.29,0,.58.06.29.06.58,0,.29,0,.57,0,.29,0,.58,0,.29,0,.58.05.29.06.58,0,.29,0,.57,0,.29,0,.58,0,.29,0,.58.06.29.05.58,0,.29,0,.58,0,.29,0,.58,0,.29,0,.57,0,.29,0,.58,0,.29,0,.58,0,.29,0,.57,0,.29,0,.58-.06.29-.06.58.05.29.05.58,0,.29,0,.57-.06.29-.06.58.05.29,0,.58,0,.29,0,.57,0,.29,0,.58.05.29.05.58,0,.29,0,.58,0,.29,0,.58,0,.29,0,.58.09.28.09.57,0,.29,0,.58,0,.29,0,.58,0,.29.05.57,0,.29,0,.58-.06.29-.06.58,0,.29,0,.58,0,.28,0,.57.1.29.1.58-.09.29-.08.58v.57c0,.29.09.29.09.58s0,.29,0,.58,0,.28,0,.57,0,.29,0,.58v.58c0,.29,0,.29,0,.58s0,.29,0,.58,0,.29,0,.58-.05.28-.05.57,0,.29,0,.58,0,.29,0,.58,0,.29,0,.58,0,.29,0,.57,0,.29,0,.58-.06.29-.06.58,0,.29,0,.58,0,.28,0,.57.06.29.06.58-.05.29-.06.58.06.29.06.58-.07.28-.07.57-.21.39,0,.61a.21.21,0,0,0,.26.05h-.12l-.05-.25h.16v.25a.58.58,0,0,1,.28-.09c.25,0,.25-.06.49-.07a4.17,4.17,0,0,1,.5,0,3.91,3.91,0,0,1,.48,0c.24,0,.25,0,.49,0s.24.1.48.1.35-.1.71-.13.37-.06.73-.07.25.08.49.09.25,0,.5,0S24.75,72.27,24.91,72.09Zm16.77-1.43,0-.11v-.08h.22l0,.15Zm1,1.15-.11,0,0,.12h-.11a.23.23,0,0,1-.16-.06h-.05l0-.08-.06-.06h0l-.06,0,0,0L42,71.66l0,0s0,0,0-.06l0,0-.07-.13.16,0,.18,0,.18.08h0l.3-.07,0,.18-.18,0v-.06l-.06,0-.29.07a.13.13,0,0,1,0,.07Zm.7,0,0,0,.07,0,0,0,0,0,.07,0,0,.08a.18.18,0,0,1-.1.11l-.1,0V72a.45.45,0,0,0,0-.08h0l0,0-.08,0,0-.31ZM43,71l-.82.2,0-.21H43Zm-.49-1.3.18,0,0,.24-.11,0h-.07l0-.06Zm-.07-1.43h0l0,0,.12,0v0s0,.09,0,.15v0l0,0a.36.36,0,0,0-.12.08l-.13.13,0-.43Zm.14.84,0,.06a.41.41,0,0,0,.12.11c.06,0,.13.09.09.18l0,0,0,.12-.18.05,0-.06h-.07l.05-.1-.06,0,0,0a.11.11,0,0,0,0,0,.26.26,0,0,1-.07-.1l-.11,0,0-.18Zm-.44,1v.2l.09,0,0,.13h0l.07,0v0l0,.1-.31.13L42,70.4h0l0-.12-.33-.08ZM41.84,69h0A.2.2,0,0,1,42,69l.08.1H42v0l-.21,0-.09-.35Zm-.38-.12a.15.15,0,0,1,.06-.13l.1-.09.06.24-.22.12Zm-.09.42h0l.07,0h.07l0,.14-.21,0-.06-.21Zm-.65.09.11.07.06,0,0,.31-.21-.13Zm-.24.83a0,0,0,0,0,0,0v-.07l.21,0,0,.18-.29.12Zm-.44.41v-.06l.34,0v.1l0,0-.16,0h-.1l-.1,0Zm-.57.55a.24.24,0,0,0,0-.09V71h0v0h0l.13-.32,0,.35s0,0,0,0h0l0,0L40,71l0,.18-.25.06v0l-.32.12ZM32.8,69.61v.16h-.16v-.21Zm-.16.27-.09,0a.27.27,0,0,0-.22,0l-.13,0h-.06V69.7l0,0a.38.38,0,0,0,.11-.11l0,0h.22l0,.17h.17Zm-.41-2.46h0l0,0h0v0l0,0,0-.07h0l0-.06,0,0h.13v.22l-.28.07,0,.19h0v0l0,.18v0l-.05,0-.12,0-.11,0,0-.1,0,0a.53.53,0,0,0,0-.14h0l-.22.05-.08-.3Zm-.35,1.2h0v-.06l.16-.06,0,.21h-.16ZM31.16,67l.05,0,.06,0-.18.23,0-.33Zm-.42,2.56v.16h-.16l-.05-.16Zm-.6-.52,0,.32-.11,0H30V69Zm-.1-.89v.1l0,0-.17,0v0h-.06V68.1Zm-.58,2.15.05.21-.11,0v0l0-.06h-.06V70.3Zm-7.23,1.32-.09,0,0,0h0l0,0a.64.64,0,0,1-.14.06l-.1,0v-.13h0l.09-.06a.44.44,0,0,1,.18-.09l.08,0v.16Zm1.13,0v.06h-.06l-.14,0-.07,0v-.21h.05l.1,0h.08l0,0,.14.09ZM24,71.6s0,0,0,.11v0l0,.05a.31.31,0,0,1-.19.16l-.07,0V71.8h-.12l0-.13h.06a.16.16,0,0,0,.12,0h0v-.06l0,0,.06,0,.25-.15Z" style="fill:#382f2d"/><path d="M11,40.5l0-.07v0h0A.37.37,0,0,0,11,40.5Z" style="fill:#382f2d"/><polygon points="57.2 40.81 57.19 40.83 57.19 40.83 57.19 40.83 57.2 40.81 57.2 40.81 57.2 40.81" style="fill:#382f2d"/><polygon points="7.45 34.66 7.48 34.66 7.48 34.66 7.45 34.65 7.45 34.66" style="fill:#382f2d"/><path d="M94.31,71.59c0-.27,0-.27,0-.54s0-.27,0-.54a4.58,4.58,0,0,1,0-.53c0-.27,0-.27,0-.53a5.64,5.64,0,0,0,0-1.06c0-.26,0-.27,0-.53s-.13-.26-.14-.52.1-.27.11-.54,0-.28,0-.55.26-.35.07-.55-.27,0-.54,0-.26.07-.52.09-.27,0-.53,0a4.53,4.53,0,0,1-.52,0c-.26,0-.26,0-.51-.07a4.52,4.52,0,0,0-.52,0,4.53,4.53,0,0,0-.52,0c-.25,0-.26,0-.51,0s-.26.1-.52.1-.24-.08-.49-.09h-.5c-.25,0-.35.21-.51,0s0-.3,0-.6.06-.3,0-.6,0-.3,0-.6,0-.3,0-.59-.05-.3-.05-.6,0-.31,0-.61.1-.3.11-.6-.07-.3-.06-.6.07-.3.08-.6-.06-.31-.06-.61,0-.3,0-.6,0-.3,0-.6,0-.3,0-.61l0-.6c0-.3-.07-.3-.07-.6s.09-.3.1-.6,0-.3,0-.6,0-.3,0-.6,0-.3,0-.6-.09-.34.09-.58.22,0,.46,0,.24-.09.48-.08.25.07.51.1a4.21,4.21,0,0,0,.51,0c.25,0,.25-.09.5-.12a4.38,4.38,0,0,1,.51,0,3.08,3.08,0,0,1,.53,0c.27,0,.33.25.52.07s0-.26,0-.53,0-.27,0-.54a4.89,4.89,0,0,1,0-.54,4.78,4.78,0,0,1,0-.53c0-.26,0-.26,0-.53a4.63,4.63,0,0,0,.07-.52c0-.27-.07-.27-.08-.53s0-.27,0-.53a4.68,4.68,0,0,1,0-.53,4.52,4.52,0,0,1,.06-.53c0-.27-.08-.28-.06-.55s.28-.36.09-.55-.28.08-.55.1a4.75,4.75,0,0,1-.53.05,4.18,4.18,0,0,1-.51-.07,2.85,2.85,0,0,0-.51-.07,2.8,2.8,0,0,0-.5,0c-.26,0-.25.08-.51.09a3.91,3.91,0,0,1-.48,0c-.24,0-.36.17-.52,0s.07-.31.06-.58,0-.27,0-.55,0-.27,0-.55-.11-.27-.12-.54,0-.28,0-.55,0-.27,0-.55.06-.28.07-.55,0-.28,0-.55-.07-.28-.06-.55,0-.28,0-.55,0-.28,0-.56,0-.27-.06-.55,0-.27,0-.55,0-.27,0-.55-.1-.27-.1-.55.1-.27.11-.54,0-.28,0-.55,0-.27,0-.55.06-.27.07-.54-.17-.31,0-.51.22,0,.47,0,.25-.06.5-.08h.5c.26,0,.26,0,.51,0s.26.1.52.12a4.36,4.36,0,0,0,.51,0,4.51,4.51,0,0,0,.52,0c.26,0,.26,0,.52,0s.25-.09.51-.09a5,5,0,0,1,.53,0c.26,0,.26,0,.52,0s.32.18.51,0,0-.23,0-.48,0-.25,0-.5,0-.25,0-.5,0-.24,0-.48,0-.25,0-.49.09-.24.09-.48a3.89,3.89,0,0,0,0-.49c0-.24,0-.24-.05-.48a4,4,0,0,1,0-.49c0-.25,0-.25,0-.5s0-.25.06-.5.23-.35.05-.52-.29,0-.56,0-.26,0-.53,0-.26.12-.52.12-.27,0-.53,0H91.7a5,5,0,0,1-.53.05c-.32,0-.32,0-.64,0s-.31-.09-.63-.1-.31,0-.63,0-.31,0-.63,0-.32-.05-.63-.05-.32,0-.63.06l-.64,0c-.31,0-.31,0-.63,0l-.63,0c-.31,0-.31.1-.63.11s-.27,0-.53,0-.27,0-.54,0-.26-.06-.53-.07-.27,0-.54,0-.26.07-.53.07-.37-.27-.55-.08,0,.31,0,.6v.58c0,.29,0,.29,0,.58s0,.28,0,.57,0,.29,0,.58.08.29.08.58-.06.29,0,.58,0,.29,0,.58v.57c0,.29-.06.29-.06.58s0,.29,0,.58,0,.29,0,.58-.06.29,0,.58.09.28.09.57-.06.29-.06.58,0,.29,0,.58,0,.29,0,.58,0,.28,0,.57,0,.29,0,.58,0,.29,0,.58v.58c0,.29,0,.29,0,.58s0,.29,0,.58,0,.29,0,.57,0,.29,0,.58-.06.29-.06.58,0,.29,0,.57,0,.29,0,.58,0,.29,0,.58,0,.29,0,.58,0,.28,0,.57,0,.29,0,.58,0,.29,0,.58,0,.29,0,.57-.06.29-.07.58,0,.29,0,.58.07.29.07.58,0,.29,0,.58,0,.29,0,.57,0,.29,0,.58,0,.29,0,.58.07.29.07.58,0,.29,0,.57.06.29.06.58-.06.29,0,.58,0,.29,0,.57,0,.29,0,.58-.06.29-.06.58.06.29.07.58,0,.28,0,.57,0,.29,0,.58.09.29.1.58,0,.28,0,.57-.06.29-.06.58,0,.29,0,.58v.58c0,.29,0,.29,0,.58s0,.29,0,.58,0,.29,0,.58.09.29.09.58-.08.28-.08.57.07.29.07.58-.11.29-.11.58,0,.29,0,.58,0,.28,0,.57,0,.29,0,.58-.09.29-.09.58v.58c0,.29.08.29.08.58a1.09,1.09,0,0,1,0,.22l.06,0h0l.06.1,0,0c-.07.05-.09.08-.1.2v0h0c0,.18,0,.25,0,.35h.07v.22l-.09,0c0,.27-.17.35,0,.55s.26.09.54,0,.26,0,.53,0S83,72,83.25,72s.27.06.54,0h.53a5.06,5.06,0,0,1,.53-.06c.32,0,.32,0,.64,0s.31,0,.63,0,.32,0,.63,0,.31.07.63.08H88c.32,0,.32-.06.63-.07s.32.07.64.06.31-.07.63-.08H90l0-.11a.19.19,0,0,0,0-.09l0-.07,0-.07.28-.07,0,0a.46.46,0,0,1,0,.15v.07h-.12v.13a4.16,4.16,0,0,0,.45,0c.31,0,.31-.06.63-.06s.26,0,.53.06.26,0,.53,0h.53l.53,0c.26,0,.26,0,.53,0s.32.16.51,0S94.32,71.87,94.31,71.59Zm-11.6.28a.14.14,0,0,1-.08-.1l-.07-.19.16.12a.31.31,0,0,1,.07.09l.07.15Zm.46-3.42-.16,0H82.8l.07-.08,0-.08.38,0v.1ZM84.31,72h0l0,0s0,0,0-.06l0-.06h-.12v-.07a.24.24,0,0,1,0-.08l0-.06-.06-.16.22.26h0l.07.1h0l0,.08V72Zm1.37-2,0,.09,0,0-.05,0H85.5l0-.17h.16Zm.5-.34-.05,0-.09,0v-.31l.13.09,0,0,.06,0Zm.16-.73-.06-.15h.06v-.06l.16,0V69Zm.65-.74-.09,0-.12,0-.07,0v-.06h-.06v-.09l0,0,.08-.06A.27.27,0,0,1,86.9,68L87,68v.06H87v.15ZM88.58,71l0,0,0,0,.1,0h.06l0,0h.09l.06.15h0v0l-.1,0s-.06,0-.16,0h-.08Zm-.27.7v-.15l.68.09Zm1.59-.36-.06-.26L90,71l0,.08H90v.21Zm.49-1.83,0,0,0,0h-.08l-.06-.06a.37.37,0,0,1-.07-.14v0l.16-.06,0,0c0,.06,0,.07.07.08l.06,0Zm2.85,1.37h0l0,0v0h-.08a.45.45,0,0,1,0,.16l0,.06-.22-.09v0l0,0v0h0a.09.09,0,0,0,.08,0h0s0,0,0-.05a.21.21,0,0,1,0-.12v0l.2-.11,0,.06a.91.91,0,0,0,.09.17h0Z" style="fill:#382f2d"/><path d="M69.94,72.11c.2-.21,0-.28,0-.57s-.07-.28-.08-.57a1.06,1.06,0,0,1,0-.21l-.18.09v-.1h-.06v-.26l0-.12h.19v.06a.62.62,0,0,0,0,.16h0l0,.11h0l0,.06a1.09,1.09,0,0,0,.06-.37c0-.29-.09-.29-.09-.57s0-.29,0-.57.06-.29.07-.57,0-.28,0-.57a.09.09,0,0,1,0,0l-.37,0-.07-.21h.06v-.06h.12v-.06l0,0a.31.31,0,0,1,.2-.09v-.1c0-.28,0-.28,0-.57s-.06-.28-.07-.57,0-.28,0-.56,0-.29,0-.57.06-.28.07-.57-.06-.28-.05-.57.08-.28.09-.56,0-.29,0-.57.08-.33.14-.66a3.83,3.83,0,0,1,.08-.68,4.88,4.88,0,0,1,.23-.64,5.46,5.46,0,0,0,.19-.66,3.86,3.86,0,0,0,.11-.68c.06-.33,0-.34.08-.68a4.71,4.71,0,0,1,.19-.64c.08-.32-.16-.62.17-.68s.07.33.14.63.08.3.15.59,0,.31.07.61.06.3.13.59.12.29.19.58,0,.32,0,.62.11.29.15.59,0,.31,0,.61.08.3.13.6.09.29.14.59,0,.32,0,.62.08.29.14.59.08.3.14.6.06.27.09.4l.15,0V66l-.05,0-.07,0v0c.06.3,0,.31.09.61l0,.11H73v.32h0a.61.61,0,0,1,0,.17c.07.29,0,.31.07.6s.07.3.12.6.06.3.11.6,0,.31.06.62.1.29.14.59,0,.31.09.61,0,.3.09.61-.13.4.09.6.28.1.57,0a1.89,1.89,0,0,1,.53-.08h.55a4.69,4.69,0,0,1,.53,0c.27,0,.26.08.53.1s.27,0,.54,0a4.73,4.73,0,0,0,.53,0l.53,0a5,5,0,0,1,.53,0h0a1.55,1.55,0,0,1,0-.22v0l0,0h0v-.06h.17v.06a2.08,2.08,0,0,0,.05.3h.29c.27,0,.27,0,.54,0s.41.26.58,0-.12-.29-.19-.57,0-.3,0-.58-.06-.28-.13-.57-.07-.27-.14-.56-.09-.27-.16-.55-.06-.28-.13-.56-.11-.27-.17-.55,0-.29-.08-.57-.06-.29-.13-.57L79,66.47c-.06-.28,0-.29-.08-.57s-.13-.27-.19-.55,0-.29-.09-.57,0-.29-.08-.57,0-.28-.1-.57-.1-.27-.16-.55,0-.29-.1-.57-.08-.28-.13-.56,0-.29-.06-.57,0-.28-.11-.56-.12-.27-.19-.55,0-.3-.07-.58-.08-.28-.15-.56-.1-.27-.16-.55-.06-.28-.12-.56,0-.29-.08-.57-.13-.27-.2-.55-.07-.28-.13-.56,0-.28-.11-.56-.09-.27-.15-.55,0-.3,0-.59l-.1-.56c-.06-.29-.15-.27-.21-.55s0-.3,0-.58L76,52.4c-.05-.28-.11-.27-.16-.55s0-.29-.1-.57,0-.28-.11-.56,0-.3,0-.58-.21-.26-.21-.55.11-.3.17-.6.07-.3.12-.6l.12-.59c.06-.3,0-.31.09-.6s0-.31.1-.6.07-.3.13-.6.13-.28.18-.58,0-.32,0-.61l.14-.6.14-.59c.07-.3.06-.3.13-.6s.15-.28.22-.57,0-.31.12-.6.09-.3.16-.59,0-.3.12-.6,0-.3.1-.6.12-.29.18-.59,0-.3.08-.6,0-.31.09-.61S78,38,78,37.67s0-.3.08-.6.07-.3.13-.6,0-.3.08-.6.11-.29.17-.59.08-.29.15-.59.08-.3.15-.6.09-.29.16-.59.06-.3.13-.6.06-.3.13-.59,0-.31.09-.61.1-.29.17-.59.31-.35.14-.6-.27,0-.54.06-.27-.05-.53,0-.26.08-.53.08-.25-.05-.51-.07-.26,0-.51,0a4.88,4.88,0,0,0-.51-.08,4.21,4.21,0,0,0-.51,0c-.26,0-.26-.05-.52,0a4.26,4.26,0,0,1-.5.06,4.58,4.58,0,0,1-.53,0c-.26,0-.26,0-.53,0s-.35-.23-.55-.06-.07.32-.11.6,0,.31,0,.59-.1.28-.15.57,0,.29-.08.58,0,.29-.09.57l-.1.58c0,.28,0,.29-.06.58s-.1.27-.16.56-.08.28-.15.56,0,.3-.06.58,0,.29-.1.58-.06.28-.13.56-.08.28-.14.56,0,.29-.11.57-.11.28-.17.56-.09.28-.14.56,0,.3,0,.59,0,.29-.07.58,0,.28-.09.57-.1.28-.15.56-.08.28-.12.57,0,.3,0,.58-.09.28-.13.57-.07.28-.12.56,0,.29-.08.57-.07.28-.13.56-.07.28-.13.57,0,.28-.08.56,0,.29-.08.57-.11.27-.17.55,0,.29-.11.57.18.6-.11.6,0-.32,0-.61,0-.28,0-.56,0-.28,0-.57-.07-.28-.07-.56.06-.28.06-.56l0-.57c0-.28,0-.28,0-.56a5.24,5.24,0,0,1,0-.56c0-.29.06-.29.07-.57s0-.29,0-.57,0-.29,0-.57,0-.29,0-.57,0-.29,0-.57,0-.29,0-.57,0-.29,0-.57v-.57c0-.29,0-.29,0-.57s0-.29,0-.57,0-.29,0-.57.08-.29.07-.57,0-.29-.06-.57,0-.29,0-.57-.06-.29-.07-.57,0-.29,0-.57,0-.29,0-.57,0-.29,0-.58.07-.28.08-.57,0-.28,0-.57,0-.29,0-.57,0-.29,0-.58,0-.28,0-.57.25-.37,0-.57-.28.07-.56.08l-.55,0c-.27,0-.27,0-.55,0a4.73,4.73,0,0,1-.53,0c-.27,0-.26-.08-.53-.09l-.53,0a4.89,4.89,0,0,0-.54,0c-.27,0-.26,0-.53.06a4.91,4.91,0,0,1-.53,0H64c-.28,0-.4-.28-.59-.09s.07.33.07.62,0,.29,0,.58,0,.29,0,.58,0,.29,0,.58.05.29.05.58-.05.29,0,.58,0,.28,0,.57,0,.29,0,.58,0,.29,0,.58,0,.29,0,.58,0,.28,0,.57v.58c0,.29.07.29.07.58s0,.29,0,.57,0,.29,0,.58-.07.29-.07.58.07.29.07.58v.57c0,.29-.06.29-.07.58s0,.29,0,.58-.05.29-.05.58.07.29.06.58-.06.29-.07.58.08.29.07.57-.07.29-.07.58.08.29.08.58,0,.29,0,.58-.08.28-.08.57.07.29.07.58-.1.29-.1.58.07.29.07.57V49c0,.29,0,.29,0,.58s-.07.29-.07.57,0,.29,0,.58.07.29.07.58,0,.29,0,.58,0,.29,0,.58,0,.29,0,.58,0,.28.06.57,0,.29,0,.58,0,.29,0,.58,0,.29,0,.57,0,.29,0,.58,0,.29,0,.58.06.29.06.57,0,.29,0,.58.07.29.07.58,0,.29,0,.58-.1.28-.09.57,0,.29,0,.58,0,.29,0,.58,0,.28,0,.57,0,.29,0,.58,0,.29,0,.58,0,.29,0,.58,0,.29,0,.58,0,.29,0,.58-.1.28-.1.57,0,.29,0,.58,0,.29,0,.58,0,.29,0,.58,0,.29,0,.57,0,.29,0,.58-.06.29-.06.58.07.29.06.58-.06.28-.06.57.07.29.07.58-.06.29-.06.58.05.29.05.58-.07.28-.08.57-.2.4,0,.61.3,0,.58-.06h.55l.55,0h.13l0,0,.06,0,0,0v0h0l-.07-.2.1,0h0a.05.05,0,0,0,0,0l0,0,.13-.08,0,.15,0,.07a1,1,0,0,0,0,.1v0l.34-.07,0,.1a0,0,0,0,0,0,0v0c.21,0,.23,0,.47.07s.27,0,.54,0a4.53,4.53,0,0,0,.53,0c.27,0,.27,0,.53,0h.54a3.32,3.32,0,0,1,.55,0c.27,0,.26.09.54.1S69.76,72.31,69.94,72.11ZM79.37,70l.27-.07V70h0v.21l-.38,0Zm-.49-.12a.13.13,0,0,1,.07-.09l.11-.08L79,70h-.17Zm-1.45,1.61,0,.08v.08h-.16v-.16Zm-1.77-.14,0,0a.22.22,0,0,0-.07.07l0,.06.09.1a.18.18,0,0,1,0,.07V72l-.27-.14,0-.1h.06v-.23l-.05.09v-.2l-.12,0V71.3h.17l0-.35Zm0-4v.16h-.16v-.21Zm-.15.27-.09,0a.29.29,0,0,0-.23,0l-.12,0H75v-.16l0,0a.26.26,0,0,0,.1-.11l0,0h.23l0,.16h.18Zm-.41-2.46h0l0,0,0,0v0l0,0,0-.07h0a.21.21,0,0,1,0-.06v0h.14v.21l-.28.07,0,.2h0v0s0,.1,0,.18l0,0h0l-.13,0-.11,0,.05-.1s0,0,0,0a.57.57,0,0,0,.06-.15h0l-.22,0-.08-.3Zm-.35,1.2h0a.08.08,0,0,1,0,0v0l.16-.06,0,.21h-.16Zm-.47,5,.06,0,.15,0,0,.34-.08-.1-.07,0H74.2v0l0,0ZM74,64.77l.05,0,.06,0-.18.23,0-.33Zm-.43,2.56v.16h-.16l0-.16Zm-3.73.1,0,0h0l0,.1h-.21l0-.25ZM63.94,70.7a.5.5,0,0,0,0,.13l0,0-.21,0,.09-.08s0,0,0-.09v0H64Zm1.12-1.31-.1,0a.4.4,0,0,1-.13.06l-.11,0V69.4l0,0,.08,0a.85.85,0,0,1,.19-.1l.07,0v.16Zm1.37,0h0a.24.24,0,0,0,.13,0h0v0l0,0,.06,0,.25-.16-.17.24s0,0,0,.12v0l0,0a.29.29,0,0,1-.19.15l-.07,0v-.17h-.11Zm-.24,0h0l-.14,0-.08,0v-.21h.24l0,0,.08.08h-.09ZM66.86,71v-.2l-.47-.5h.26v0a1.5,1.5,0,0,0,.09.18l.15.29.12,0V71Zm.74-.53,0,0h0a.24.24,0,0,1-.13.13l-.09,0v-.28h.11v-.06l.16,0Zm.19-.3,0-.11h-.06l0,0s0,0,0-.05l0,0,0,0s0,0,0,0l.11-.3,0,.46h0l.13.06v.16Zm.27.82,0-.21h.16l0,0a.15.15,0,0,0,0,.09h0l0,0,0,0,.08.11Z" style="fill:#382f2d"/><path d="M112.54,30.51c-.14-.21-.27.07-.52.08s-.26-.09-.52-.09-.25.11-.5.11-.25-.05-.49-.07-.24,0-.49-.05a4,4,0,0,0-.49,0,4.28,4.28,0,0,0-.49.05c-.24,0-.25-.06-.49,0s-.24.08-.49.09-.25-.08-.5-.1-.25,0-.5,0-.34-.19-.52,0-.05.29-.09.57,0,.29,0,.58-.06.27-.09.56-.1.27-.13.55,0,.29,0,.57-.08.27-.13.55,0,.29,0,.57-.12.27-.17.54,0,.29-.05.57-.08.27-.13.55-.11.26-.16.54-.08.27-.13.55,0,.29,0,.57-.08.28-.11.56,0,.28,0,.56,0,.28,0,.56-.06.28-.1.56-.09.27-.13.55,0,.27-.08.55-.07.27-.12.54,0,.28-.08.55,0,.29,0,.56-.12.26-.17.53.21.61-.07.61,0-.34-.06-.61-.08-.27-.14-.55-.1-.26-.16-.53,0-.29,0-.56-.11-.26-.16-.53,0-.28-.08-.56,0-.28-.07-.56l-.08-.56c0-.28-.07-.27-.11-.55s-.06-.28-.1-.56l-.08-.56c0-.28.05-.29,0-.57s-.11-.27-.17-.55-.08-.27-.14-.55,0-.28-.1-.55-.09-.27-.15-.55,0-.29-.06-.56-.12-.27-.17-.55,0-.28-.06-.56-.07-.28-.11-.56,0-.29,0-.57,0-.29,0-.57-.1-.27-.14-.55.19-.42,0-.61-.3,0-.56,0-.27.06-.53.07a5.15,5.15,0,0,1-.53.07c-.26,0-.26-.11-.52-.13s-.26.07-.52.05a1.77,1.77,0,0,0-1,0c-.26,0-.26,0-.52.06a4.34,4.34,0,0,1-.51,0c-.27,0-.27-.05-.54-.05s-.26,0-.53,0-.37-.23-.52,0,.09.28.16.57.06.29.13.58,0,.3.11.59.07.28.13.57.06.29.13.58,0,.3.11.59.12.27.19.56.1.28.17.57.08.29.15.57,0,.31.08.59.12.28.18.57.07.29.13.58,0,.3.07.59.07.29.13.58,0,.3.06.6.08.28.14.57,0,.29.1.58.11.28.17.57,0,.3.07.59.11.28.17.57,0,.3.09.59l.14.58c.07.28,0,.29.12.58s.17.26.24.55,0,.3.09.59.11.27.18.56l.14.58c.07.29,0,.3.08.59s0,.29.11.58l.14.57c.06.29.07.29.13.58s.1.28.16.57.09.29.15.58l.12.58c.06.29,0,.3,0,.59s.12.28.18.57,0,.29.09.58l.12.58c.06.29.05.29.11.58a5.81,5.81,0,0,1,.09.58,5.7,5.7,0,0,1,.06.58c0,.29,0,.29,0,.57s0,.29,0,.58,0,.29.05.58-.05.28,0,.57,0,.29,0,.58.06.28.06.57,0,.29,0,.58-.07.29-.08.57.06.3.06.58-.09.29-.09.58,0,.29,0,.58-.06.28-.07.57,0,.29,0,.58,0,.29,0,.58,0,.28,0,.57-.07.29-.06.58,0,.29,0,.58,0,.29,0,.57,0,.29,0,.58,0,.29.05.57,0,.29,0,.58,0,.29,0,.57,0,.29,0,.58,0,.29,0,.58,0,.29,0,.58,0,.29,0,.58,0,.29,0,.58,0,.29,0,.57,0,.29,0,.58,0,.29,0,.58-.19.34,0,.55.23,0,.5,0,.26,0,.53,0a4.69,4.69,0,0,1,.53,0,4.51,4.51,0,0,1,.52,0c.26,0,.26,0,.51,0s.26,0,.52,0a4.4,4.4,0,0,0,.51,0c.26,0,.26,0,.52,0s.26-.07.51-.07.27.08.53.09l.54,0c.26,0,.36.19.54,0s0-.3,0-.59,0-.29-.06-.58,0-.29,0-.58,0-.29,0-.58,0-.29,0-.58.06-.29.05-.58,0-.29,0-.57-.1-.29-.1-.58,0-.29,0-.58,0-.29,0-.58,0-.29.05-.57,0-.29,0-.58,0-.29,0-.58.06-.28.06-.57,0-.29,0-.58.08-.29.08-.57-.09-.29-.09-.58,0-.29,0-.58,0-.29,0-.58-.09-.28-.09-.57,0-.29,0-.58-.06-.29-.07-.57,0-.29,0-.58,0-.29,0-.57,0-.29,0-.58,0-.29,0-.58-.09-.29-.08-.58,0-.28,0-.57,0-.29,0-.57,0-.29,0-.58,0-.29,0-.57-.08-.3,0-.58a2.36,2.36,0,0,1,.11-.59c.08-.29.13-.28.19-.57s.08-.28.14-.57.05-.3.11-.59,0-.3.08-.59.11-.27.17-.56l.12-.58c.06-.29,0-.31,0-.6s.07-.29.13-.58.1-.28.16-.57,0-.29.11-.58l.14-.58c.08-.29.13-.27.21-.56s0-.3.09-.59.08-.29.15-.57.1-.28.17-.57.09-.28.17-.57,0-.31.05-.6.13-.27.2-.56.05-.29.11-.58.1-.28.16-.57,0-.3.12-.59,0-.3.06-.59.07-.29.13-.58.11-.28.18-.57,0-.3.06-.59.13-.28.19-.57,0-.3.06-.59.1-.28.16-.57.08-.29.14-.58,0-.29.12-.58,0-.3.1-.59.09-.29.16-.57.1-.29.17-.57.09-.29.16-.58,0-.3.1-.58.13-.28.2-.57,0-.3.08-.59.09-.28.16-.57S112.7,30.76,112.54,30.51Z" style="fill:#382f2d"/><polygon points="181.04 31.9 181.04 31.9 181.05 31.9 181.04 31.9" style="fill:#382f2d"/><path d="M173.24,70.89c0-.29-.07-.29-.07-.58s.06-.29.05-.58-.05-.29-.05-.58,0-.29,0-.58,0-.28,0-.57,0-.29,0-.58,0-.29,0-.58,0-.29,0-.57,0-.29,0-.58v-.11l-.16.06,0,0,0,0v-.19a.3.3,0,0,0,.06-.26v0l.15,0,0,.06a.64.64,0,0,0,0,.07v-.08c0-.29,0-.29,0-.58s0-.29,0-.58,0-.28,0-.57,0-.29,0-.58,0-.29,0-.58-.07-.28-.07-.57,0-.29,0-.58,0-.29,0-.58,0-.29.06-.58,0-.29,0-.58h-.12v-.17h.12a1.94,1.94,0,0,0,0-.24l-.05,0v-.16l.06,0h0c0-.29,0-.29,0-.57s0-.29,0-.58,0-.29,0-.58,0-.29,0-.57-.05-.29-.05-.58,0-.29,0-.58,0-.29,0-.58.08-.28.08-.57,0-.29,0-.58-.07-.29-.07-.58.08-.29.08-.57,0-.29,0-.58,0-.29,0-.58-.08-.29-.09-.58.05-.29.05-.58,0-.28,0-.57,0-.29,0-.58,0-.29,0-.58,0-.29,0-.58,0-.29,0-.57,0-.29,0-.58v-.58c0-.29,0-.29,0-.57s0-.29,0-.58-.05-.29-.05-.58,0-.29,0-.58,0-.28,0-.57,0-.29,0-.58-.05-.29-.05-.58,0-.28,0-.57,0-.29,0-.58,0-.29,0-.58,0-.29,0-.58,0-.29,0-.58,0-.29,0-.58.06-.28.06-.57-.06-.29-.06-.58.06-.29.06-.58-.06-.29,0-.58.09-.28.09-.57,0-.29,0-.58,0-.29,0-.58.07-.29.07-.57-.09-.29-.09-.58.09-.29.1-.58,0-.29,0-.58,0-.29,0-.57,0-.29,0-.58.14-.34.11-.46l0,.07a.35.35,0,0,0,0,.06v0H173v-.15l.27-.06a.24.24,0,0,0-.08-.1c-.27-.22-.35,0-.7,0s-.35,0-.7,0-.33,0-.66,0a6.51,6.51,0,0,0-1.35,0,4.87,4.87,0,0,1-.66,0,5.46,5.46,0,0,1-.7,0c-.35,0-.41-.26-.68,0s0,.27,0,.55a.57.57,0,0,0,0,.14l.39,0,.05-.17.06,0,.11,0h.05v.16h0l-.15.05-.06,0-.07,0-.06,0,0-.06h0l-.23-.06a3.53,3.53,0,0,1,0,.39c0,.28-.09.28-.08.57s.05.28.05.56,0,.28,0,.57,0,.28,0,.56,0,.28,0,.57,0,.28,0,.56.08.28.09.56,0,.29,0,.57,0,.28,0,.56-.08.29-.09.57,0,.28,0,.56,0,.28,0,.57.05.28,0,.56,0,.28,0,.56,0,.29,0,.57.05.28.05.56-.07.28-.08.56.06.28.06.57-.07.28-.07.56,0,.28.06.57-.06.28-.05.56.06.28.06.57,0,.28,0,.56-.08.28-.08.56,0,.29,0,.57,0,.28,0,.56.07.28.08.56,0,.28,0,.56-.06.28-.06.56,0,.28,0,.56,0,.28,0,.56v.56c0,.28,0,.28-.05.56s0,.28,0,.56,0,.28,0,.56,0,.28,0,.56,0,.27,0,.55.25.56,0,.55-.1-.26-.15-.54,0-.29,0-.57l-.1-.56c0-.27,0-.28-.07-.56s-.1-.27-.15-.55,0-.28,0-.56,0-.29-.07-.56-.13-.27-.18-.55,0-.28-.08-.55,0-.29,0-.57-.08-.28-.12-.56-.07-.28-.11-.57,0-.28-.05-.57l-.08-.56c0-.28,0-.29,0-.58s-.07-.27-.11-.56-.08-.27-.12-.56,0-.28-.07-.56,0-.29,0-.57-.08-.28-.12-.56-.09-.28-.14-.56,0-.29-.06-.57,0-.29-.05-.57-.13-.27-.18-.55,0-.29,0-.57,0-.29-.09-.57-.08-.27-.13-.55-.07-.28-.12-.56,0-.28-.08-.57,0-.28-.06-.56-.09-.28-.13-.56-.08-.28-.12-.57,0-.29,0-.58-.12-.27-.16-.55,0-.29,0-.57,0-.29-.07-.57-.06-.28-.1-.56,0-.29,0-.58-.09-.27-.13-.55a.09.09,0,0,1,0-.05h0l-.12,0h0a.47.47,0,0,0,0,.19l0,.08h-.05v0h-.09l0,0,0,0a.44.44,0,0,1-.06-.1v0l0,0a.3.3,0,0,0,.07-.1v0a.06.06,0,0,0,0,0l0-.06h.05l0-.31,0,.29.15,0,0,0c0-.14.08-.22-.08-.34s-.3,0-.61,0-.32,0-.64,0-.32.06-.63.06h-.28l0,.05-.3,0v0h-.09l-.62,0c-.31,0-.31,0-.62,0s-.31.05-.62.06l-.47.05h0v0l0,0c0,.05-.06.08-.06.1v0a.09.09,0,0,0,0,.05v.06h-.05l0,.28,0-.27-.15,0,0-.05,0,0-.11-.11h.19a.23.23,0,0,1,.11,0h0a.54.54,0,0,0,0-.15c-.25,0-.27-.06-.56-.06s-.32,0-.64,0h-.13v.05H158v.16l-.12,0a.89.89,0,0,0-.23,0h-.09l0-.08s0-.07,0-.11h-.22c-.32,0-.4-.22-.64,0l-.06.07h0v.21h0a.75.75,0,0,1,.1.31c0,.29,0,.29,0,.58s-.05.29,0,.58v0h0l.12-.08,0,.14a.29.29,0,0,1,0,.09v.06h-.05a.92.92,0,0,1,.06.35c0,.29-.08.29-.08.58s.06.28.07.57-.05.29-.05.58.09.29.09.58,0,.29,0,.58v.22l.41.1-.41,0v.23c0,.29,0,.29,0,.58s-.06.29-.06.58.07.29.07.58v.57c0,.29-.07.29-.07.58s.06.29.06.58,0,.29,0,.57,0,.29,0,.58-.08.29-.09.58,0,.29,0,.58,0,.29,0,.58,0,.29,0,.58.06.29.06.58-.05.28-.05.57,0,.29,0,.58,0,.29,0,.58,0,.29,0,.57,0,.29,0,.58,0,.29,0,.58,0,.29,0,.58-.06.28-.07.57.09.29.09.58,0,.29,0,.58,0,.28,0,.57,0,.29,0,.58,0,.29,0,.58.08.29.08.57,0,.29,0,.58-.09.29-.08.58.09.29.09.58-.06.29-.05.58,0,.29,0,.58,0,.28,0,.57,0,.29,0,.58-.05.29-.05.58,0,.29,0,.57,0,.29,0,.58,0,.29,0,.58,0,.29,0,.57,0,.29,0,.58-.07.29-.06.58.08.29.08.57,0,.29,0,.58,0,.29,0,.58,0,.29,0,.58,0,.29,0,.58,0,.29,0,.58,0,.29,0,.57-.06.29-.06.58.05.29.05.58,0,.29,0,.58,0,.29,0,.58,0,.28,0,.57,0,.29,0,.58,0,.29,0,.58-.05.29-.05.57,0,.29,0,.58,0,.29,0,.58,0,.29,0,.58,0,.29,0,.57-.08.29-.08.58-.22.43,0,.61.37-.08.72-.09a5.32,5.32,0,0,1,.69,0c.34,0,.33.06.67.08a9,9,0,0,1,1.34,0c.34,0,.33-.08.67-.09s.35,0,.69,0,.42.25.69,0,0-.28,0-.55,0-.28,0-.56,0-.28,0-.56,0-.28,0-.55,0-.28,0-.56,0-.28,0-.56,0-.27,0-.55,0-.28,0-.56,0-.28,0-.55-.05-.28-.05-.56,0-.28,0-.55,0-.28,0-.56,0-.28,0-.56,0-.27,0-.55,0-.28,0-.56,0-.27,0-.55,0-.28,0-.55.06-.28.07-.56,0-.27,0-.55-.06-.28-.06-.56,0-.27,0-.55,0-.28,0-.56,0-.28,0-.55-.08-.28-.08-.56.06-.28,0-.55-.08-.28-.09-.56,0-.27,0-.55,0-.28,0-.56,0-.27,0-.55-.06-.28-.07-.55v-.55c0-.28,0-.28,0-.56s0-.27,0-.55,0-.27,0-.54l0-.55V52.1c0-.28,0-.28,0-.55s0-.28,0-.55,0-.27,0-.55-.3-.6,0-.6,0,.33.09.61.12.26.18.54l.12.54c.06.28.07.28.13.55s0,.3,0,.57.12.26.18.54.07.27.13.54,0,.28.08.56.12.26.18.53l.12.55c.05.28,0,.3,0,.58s.15.26.2.54,0,.29,0,.57,0,.28.09.56l.1.56c.05.27.08.27.13.55l.1.55c.05.28.09.28.14.55s.06.28.11.56.05.28.11.55,0,.29.07.57.09.27.16.55.05.28.11.55.08.27.14.55.06.28.13.55,0,.28.1.56.11.26.18.54,0,.3,0,.57.11.27.17.54l.12.55c.06.28,0,.29.06.57s.08.28.13.56,0,.28.09.56.13.26.19.54,0,.29,0,.57.09.27.14.55,0,.29.05.57.09.27.14.55.06.28.11.56-.12.38.1.56.28.06.57,0a1.71,1.71,0,0,1,.55-.09,5.43,5.43,0,0,1,.55.06,4.53,4.53,0,0,1,.53,0c.27,0,.28,0,.55,0s.26,0,.53,0a4.9,4.9,0,0,0,.54,0l.54,0a4.64,4.64,0,0,1,.53,0c.28,0,.28,0,.56,0s.27,0,.55.06.36.17.55,0,0-.28,0-.57S173.24,71.18,173.24,70.89Zm-15.9-39.15h.16V32l-.11-.05h0Zm.14.66a.51.51,0,0,0-.1,0l0,0v-.15h.16v.05a.31.31,0,0,1,.07.09l.08.17Zm.52,1.2h-.17v-.07s0-.06,0-.09l0-.05.16,0Zm.52,4.13,0-.11a.24.24,0,0,1,.14-.14l.06,0,.06.27Zm.36-3.39.06.25-.12-.06h0a.12.12,0,0,1-.1,0h0l0-.11-.08,0,0-.11a.36.36,0,0,1,.06-.11l0-.05.11-.2v.24h0a.37.37,0,0,0,.14,0l.08,0v.09l.05.11Zm.85-2.54h.05v-.06H160l-.09.1s0,0,0,.05v0h0v0h-.16Zm-.28.19a.15.15,0,0,1,.11.08l.08.12-.14,0a.14.14,0,0,1-.12-.09l-.07-.12Zm-.16,2.1,0-.11v0h.17v.16Zm.22.86V34.8l.62.15Zm.67-1.44v0h0v0c-.14,0-.16-.06-.16-.21v-.06h.05v-.17h.06l.09-.09,0,.12,0,.44Zm.06-2,0,0s0-.06,0-.11v-.07h.06v-.05h.15l.07.26Zm.83.34a.35.35,0,0,0,.08-.13v0h.1V32h-.15V32h-.05v-.18Zm-.53,1.74,0-.08h.06V33.2l.09,0v0h.07v0a.84.84,0,0,1,.06.33v.08h-.08C160.64,33.66,160.58,33.65,160.54,33.56Zm.46.32h0V34l-.15,0-.05-.19H161ZM161,33.4v-.16l.08,0a.18.18,0,0,1,.09.08l.07.12Zm.3-.08,0,0-.09-.07s0,0,0,0l-.13-.12.31,0,0,0a.28.28,0,0,1,0,.11v.07Zm0-1.56v-.12l.22,0v.15Zm.19-.4a.15.15,0,0,1,0,.08l-.08.1,0-.1,0-.07-.07-.11h.13l.16,0Zm.22-.27h-.08a2,2,0,0,1-.05-.31V30.7l.09,0h.1a1.39,1.39,0,0,1,0,.32v.09Zm.38,2.8h-.16v-.06h-.05l0-.27.28,0Zm.1-2H162v-.16h.06l.06,0h.15l-.05.15h-.06Zm.3,1.58a.23.23,0,0,1-.12.06l-.08,0v-.16l.37-.08Zm5.64-1.11v.08l-.24.08.09-.14a.24.24,0,0,1,.06-.08l.21-.22Zm.33,1.21V33.5h-.06v-.16h.21v.21ZM170,30.64H170v.17h-.16v-.21Zm-.83,28.08-.15.06-.05-.15,0,0h0l.06-.06,0,0,.12.06-.08,0Zm.15-25.15v0l0,0,0-.07.28-.07v.2Zm.44-.62,0,0-.1-.05,0,0s0-.06,0-.11l0-.07h.07a.53.53,0,0,0,.25-.11l.12-.08-.07.42-.07,0h-.05Zm.08,24.36v-.08a.31.31,0,0,1,0-.1v0l.12-.05.08.2Zm.1-1.93-.06-.15.2-.08v.17Zm0-23.73v0a.58.58,0,0,0-.17-.23c-.08-.07-.13-.13-.08-.2l.06-.07V31h.16V31h0l0,.06v.07H170l0,.05a.36.36,0,0,0,.05.09.41.41,0,0,1,.06.19h.17v.16Zm.78,31.13h-.2l-.15,0,.09-.12a.8.8,0,0,1,.15-.17l.06-.06,0,.08c0,.06.06.1.09.15l.09.13ZM171,32l-.06,0a.25.25,0,0,1-.09-.09l0-.09h.07v0l.22,0,0,.36Zm.13,26.55.05-.2.07,0a.16.16,0,0,1,.08.1l0,.09Zm.3-26.24a.19.19,0,0,1-.1.14l-.08,0v-.23l.21-.07Zm.17-.73,0-.11h.24v.21h-.11v0l-.11-.06ZM172,56.53a.19.19,0,0,1-.11,0v0l-.13-.23.34-.13.12.3-.06,0,.19.29-.24-.17A.17.17,0,0,0,172,56.53Zm.17,4.42-.06-.14.64-.08Zm.57-29.24-.1-.09h-.05l0-.26.17.15Z" style="fill:#382f2d"/><path d="M188.32,65.66c-.19-.19-.28,0-.54,0l-.53,0a4.51,4.51,0,0,1-.52,0c-.26,0-.27.08-.52.06s-.26-.09-.51-.11-.26,0-.52,0-.26,0-.52,0-.25.1-.51.11a4.51,4.51,0,0,1-.52,0,4.19,4.19,0,0,1-.5,0c-.25,0-.25,0-.5-.06s-.36.18-.52,0,0-.32,0-.62,0-.3,0-.6-.07-.3-.08-.6.07-.3.06-.6S182,63,182,62.69s.05-.3.06-.61,0-.3,0-.6,0-.3,0-.61.09-.29.1-.59,0-.31,0-.61,0-.3,0-.6-.06-.3-.07-.6,0-.31,0-.61,0-.3,0-.6-.06-.3-.06-.6,0-.3,0-.6,0-.3,0-.6,0-.3,0-.6.06-.3.07-.6-.22-.38,0-.61.26.05.5,0,.24-.13.48-.13.25.11.51.14a4.24,4.24,0,0,0,.51,0,3.07,3.07,0,0,0,.51-.06,2.84,2.84,0,0,1,.5-.06,3.23,3.23,0,0,1,.53,0c.26,0,.32.21.51,0s0-.26,0-.53-.07-.26-.09-.53a4.87,4.87,0,0,1,0-.54c0-.27,0-.27,0-.53s0-.27,0-.53a3.09,3.09,0,0,0,0-1c0-.27,0-.27,0-.54a4.51,4.51,0,0,1,0-.52,3.27,3.27,0,0,1,0-.54c0-.27,0-.27,0-.54s.3-.38.11-.57-.3,0-.56.06-.27.1-.53.09a4.18,4.18,0,0,1-.51-.07c-.25,0-.25-.1-.51-.1a4.63,4.63,0,0,0-.51.05,2.73,2.73,0,0,1-.5.06,2.57,2.57,0,0,1-.48,0c-.24,0-.34.14-.5,0s0-.29,0-.56,0-.27,0-.55,0-.27,0-.55,0-.27,0-.54,0-.28,0-.55,0-.28,0-.55,0-.28,0-.55,0-.28,0-.55,0-.28,0-.56.09-.27.09-.55,0-.27,0-.55,0-.27,0-.55-.07-.27-.08-.55,0-.27,0-.55,0-.27,0-.55.08-.27.09-.54,0-.28,0-.55,0-.28,0-.55l0-.54c0-.28-.12-.33.06-.53s.23,0,.48,0,.26,0,.51,0,.25-.09.5-.09a4.79,4.79,0,0,1,.51.07c.26,0,.26,0,.52,0s.25.09.51.09.26-.07.52-.09.25,0,.51-.05a3.95,3.95,0,0,0,1,0c.26,0,.26,0,.52.06s.31.18.51,0,0-.22,0-.47.07-.25.06-.5-.12-.25-.12-.5,0-.24,0-.49,0-.24.06-.48.11-.24.11-.48-.11-.24-.13-.49.06-.24,0-.49a3.85,3.85,0,0,1,0-.48c0-.25,0-.25,0-.5s0-.25,0-.5.25-.34.07-.52-.28,0-.55,0h-.53c-.23,0-.26,0-.44,0a.27.27,0,0,1-.24.16h0l0,0,0,0,0-.05a1.18,1.18,0,0,1-.26,0c-.26,0-.26,0-.53,0s-.26,0-.53,0-.31,0-.63,0h-.38v.11l-.11-.09s0,0-.12,0h0c-.29,0-.31,0-.61,0l-.63,0c-.32,0-.32-.05-.63-.05s-.32.06-.63.07h-.64l-.63,0-.63,0h-.34l.1.06,0,.05,0,0v.06l-.06,0-.09,0,0,0v-.05l0-.06h-.72c-.27,0-.27,0-.54,0s-.27,0-.53,0-.27,0-.54,0-.26-.08-.53-.08-.33-.16-.51,0,0,.27,0,.56v.15l.14.64-.14-.08a.3.3,0,0,1,0-.11v-.26a.86.86,0,0,0,0,.24c0,.29,0,.29,0,.58s0,.29,0,.58,0,.29,0,.58.1.29.11.58,0,.29,0,.58,0,.29,0,.58-.07.28-.06.57,0,.29,0,.58,0,.29,0,.58-.06.29-.06.58,0,.29,0,.57,0,.29,0,.58,0,.29,0,.58,0,.29,0,.58,0,.29,0,.57,0,.29,0,.58-.06.29-.06.58,0,.29,0,.58,0,.29,0,.58,0,.29,0,.58,0,.29,0,.58,0,.28,0,.57,0,.29,0,.58,0,.29,0,.58,0,.29,0,.57-.07.29-.07.58.08.29.08.58,0,.29,0,.58,0,.28,0,.57,0,.29,0,.58,0,.29,0,.58.07.28.06.57-.08.29-.08.58,0,.29,0,.58.06.29.06.57-.06.3-.06.59,0,.28,0,.57,0,.29,0,.58,0,.29,0,.58,0,.29,0,.58-.08.28-.08.57.09.29.1.58-.1.29-.1.58.08.28.08.57v0h0l.08.23-.11,0a1,1,0,0,0,0,.29c0,.29.06.29.07.58s0,.29,0,.57-.06.29-.06.58,0,.29.06.58-.06.29-.05.58,0,.28,0,.57,0,.29,0,.58.08.29.08.58,0,.29,0,.58-.09.29-.09.58,0,.29,0,.58,0,.29,0,.58,0,.28,0,.57,0,.29,0,.58,0,.29,0,.58,0,.29,0,.58,0,.29,0,.57,0,.29,0,.58,0,.29,0,.58,0,.29-.05.58,0,.29,0,.57,0,.29,0,.58,0,.29,0,.58,0,.29,0,.58-.23.38,0,.59.27.07.56,0a1.35,1.35,0,0,1,.53,0l.53,0c.27,0,.27,0,.54,0l.24,0,0,0,.11,0v0l-.07-.15-.13-.23.22.15,0,0,0,0v0a.93.93,0,0,1,0,.14h0l0,.08h.1c.26,0,.27,0,.53,0s.32,0,.63.06l.52,0-.15-.53,0,0-.05-.07-.09-.1h.14v-.13l.11,0,0-.06.22-.18v0l.06,0,.17.13.06,0,0,0,.05,0,0-.12.11,0h.14v0a.49.49,0,0,1,0,.15.34.34,0,0,0,0,.12v.1h-.05l-.18,0h0a.44.44,0,0,1-.1.22h0a1.15,1.15,0,0,1,.15.36l0,.13a1.36,1.36,0,0,1,.29,0c.31,0,.31,0,.63,0s.31.1.63.1.32,0,.63,0,.32,0,.63-.06h.63c.32,0,.32,0,.63-.05s.32.06.64.06.26-.06.53-.06.26.05.53.06.26,0,.53,0,.26.05.53.06.26,0,.53,0,.36.27.54.08-.05-.28-.06-.56,0-.27,0-.54,0-.27,0-.55,0-.26,0-.52-.05-.27,0-.54a4.6,4.6,0,0,0,.06-.52,4.84,4.84,0,0,0,0-.53c0-.27-.09-.26-.11-.53a4.53,4.53,0,0,1-.05-.53c0-.27.08-.26.1-.53s0-.28,0-.55S188.51,65.85,188.32,65.66Zm-.95-33.79v.05h0l0,.07a1,1,0,0,0,0,.25v.06h-.16l0-.1a1.2,1.2,0,0,1,0-.23v-.05Zm-.58-1.11,0,0,.06,0,.08-.05v.23l-.12,0,0,0h0l0,0v-.06Zm-.59.08c.06-.08.09-.12.13-.12h0l0,0,0,0,0,.06,0,0a.13.13,0,0,0-.06.08l-.05.08-.05,0-.07,0-.06,0ZM185.58,32a.17.17,0,0,1,.11.08l.08.15-.16-.06-.05,0h-.05V32Zm-.7.13.39.09v.17l.28-.07v0h.05l0,.09a.16.16,0,0,0,0,.16l0,.08-.44,0,0,0c0-.12-.08-.15-.22-.16h-.06v-.32h0Zm-.57-.91v.05a.58.58,0,0,1,.18.17l0,.09h-.16l-.14.24v-.24s0-.07,0-.12a.28.28,0,0,1-.05-.11l0-.08ZM184,32.6a.73.73,0,0,1,.32.06l.13.07-.14,0a.6.6,0,0,1-.2,0h0l0,0h-.08l-.06-.16Zm-1.72-.41.09-.09v.08h.12v.16h-.22v0h0v0l0-.08Zm-1.05.6.09-.07,0,.23h-.19v-.12Zm-.12-.94,0,0v0h0V32L181,32l.08.1a.24.24,0,0,1,.05.09l0,0h0l0,0c-.05,0-.06,0-.06.14v.06h-.22l.05-.22.11-.06-.17-.42.16.2v-.11h.16Zm0,23.58-.13.11-.15-.24.18-.12Zm-.46-24.61,0-.06c0-.06.06-.09.2-.11H181v.16l0,0-.05,0a.33.33,0,0,1-.18.07h-.16Zm-.23.68.06,0,0,.11a.18.18,0,0,1-.1,0l-.38-.32ZM180,53.18h0l0,.05.06,0h0l0,.06,0,0h.07l0,.05,0,.1-.05,0c0,.09-.07.12-.17.18l-.05,0-.11-.14,0,0v0s0,0,0-.07h0l-.17,0h0l-.2,0,.15-.15-.06-.16.23,0,0-.32.11.26.45-.17-.39.32Zm.18,1.16-.3-.33-.08-.08-.18-.16.25,0v0a.45.45,0,0,1,.1.13ZM179.47,50l.12,0,.06.17-.15.06v-.08C179.48,50,179.48,50,179.47,50Zm.18-18.36.28.07V32l-.08,0a.32.32,0,0,0-.18,0h-.07v-.24h.06Zm0,.81.06.16,0,0a.08.08,0,0,0,0,0l0,0-.28-.08v-.09l0,0ZM178.89,31l.16.11V31h.16l0,.22v.08h0v0h.17v.15h-.12v.19l-.12-.17,0,0,0,0h0v-.1h0v-.06c-.16,0-.21-.07-.23-.25V31Zm-1,.06.13.14h-.26l0-.11Zm.19.47v.19a.44.44,0,0,1,0,.18.46.46,0,0,0,0,.09l-.1.33,0-.55,0,0a.29.29,0,0,0,.08-.07Zm-1.6-.8,0,.09s0,0,0,0h0l-.11,0h0l-.06-.15Zm-.37.32h.09l.08.28-.15-.12,0,0-.07-.07ZM176.26,68s0,.06-.11.09l-.11.06,0-.13c0-.07.07-.09.12-.11l.19-.07Zm0-6.12v-.06a.21.21,0,0,1,.13-.21l.06,0,0,.11,0,0v.17Zm.16-7.82-.06-.16h.1l.09,0,.23.1Zm.67-3.44a.18.18,0,0,1,.05-.22l.07,0,0,.11h0l.13,0h.1l0,.09c0,.07-.06.1-.1.11l-.08,0h0l-.08,0h-.06Zm.5,21.27-.14.12,0-.11v-.12h.17Zm.05-3.45a.39.39,0,0,1-.14,0h0l.06.16-.22,0,0,0a.63.63,0,0,0-.1-.17l0,0,.14-.14,0,0c.07,0,.12.06.28,0l.08,0v.16Zm0-.59-.19-.5.22.25a.36.36,0,0,1,.07.1l0,0Zm.14-8.91s0,0,0,0l-.06.07-.08-.21.06,0,.11,0,.37-.17-.3.27A.17.17,0,0,0,177.75,58.9Zm.72,7.69a.51.51,0,0,1-.18.21l-.07,0,0-.11-.24.17-.14-.23h.11a.16.16,0,0,0,.11-.05h0l0,0,0,0v0l0-.07h.07a.56.56,0,0,1,.26,0h0l0,0,.09,0,0,0Zm.35-4.92-.28,0,0,0,.05,0-.05,0a.94.94,0,0,1-.18-.24l0,0,.14-.11v0l.08,0h.08l0,0a.51.51,0,0,0,.18.13l.14.07-.17.06Zm.09-9.68h0l-.12.08,0-.14,0,0,0-.06.15,0,.05.15Zm0-19.7-.37,0,.31-.12-.06-.16h.2l0,.13c0,.07,0,.11.05.25l0,.08-.18,0Zm.11.7.08-.05.07,0,0,0a.22.22,0,0,0,0-.08v0a.17.17,0,0,0,0-.07h.12a1.33,1.33,0,0,0,.05.26l0,.07-.07,0h-.31v0Zm.09,22.26.06,0,0,0,0,0,0,0h.08v.08a.49.49,0,0,1-.06.17l-.06.12-.1-.27Zm0,7.27,0,0,0,0,.07-.07.1.27-.15,0,0,0,0,0,0,0Zm.28,2.17,0,0h-.09l0,0-.12-.08,0,0v0a.18.18,0,0,1,0-.12.16.16,0,0,0,0-.1v0l.19-.07,0,0h.16c.1,0,.13,0,.19.13v0l0,0v0s0,0,0,0v0l0,0a1,1,0,0,1-.25.13Zm.13,1.78-.11-.13.07,0,.16-.08.06,0,.07.19Zm.11-11.35-.08-.2.26-.1.06.15Zm.57.12-.06.09-.11-.28.22,0v.06A.23.23,0,0,1,180.23,55.24Zm.2-2.31a.68.68,0,0,1,.12-.12l.11-.09v.14c0,.08-.06.12-.14.16l-.21.1Zm-.1,1.22.22-.08-.05.12a.11.11,0,0,0,0,.06l0,.46Zm.27,9.11-.11-.12.27,0v.17Zm.05-5.46,0-.06a.33.33,0,0,1,0-.1l0-.08.07,0a.19.19,0,0,1,.07.08l0,.06Zm.17-1.4v-.22l.09,0h.1l0,0,.06,0,0,.08Zm.52,7.52,0,0a.43.43,0,0,1-.17.13h0l.09.22-.13,0H181v0a.28.28,0,0,1,0-.09h0v0l0-.1,0,0,.22-.08-.14-.19h.17l.15.24h0v0Zm.5-31.47,0,0h0l0-.16H182l.08,0h0v.06s0,.06-.06.12l0,.06,0,0-.21-.06Zm.1,35.81v-.17l.13-.11,0,0h0l0,.1a.15.15,0,0,0,0,.07v.06Zm.14,2.63-.06-.15.13-.1.07.2Zm.54-1.83a.44.44,0,0,0-.05.15v0l-.12.05-.07-.33.06,0h.16l0,.1Zm.47,2.26v0s0,0-.09.06l0,0-.11-.13.26-.09v.08S183.1,71.31,183.09,71.32Zm.65-4.07s0,0,0-.11v0l.15,0,0,0h0l0,.08-.07,0v.17h-.12l-.09-.08Zm-.13,3,0-.11.2-.08.06.16-.17.08Zm.29.61-.11-.31.05,0,0-.06.17-.06-.07-.15-.13-.35.12.14.18-.11,0,.17,0,0,0,0,.11.13v.1l0,0,.06,0,0,.1a.25.25,0,0,0,0,.08h0l0,.11Zm.32-1-.07-.09s0,0,0-.06a.21.21,0,0,1,0-.06v0l.12,0,0,0,0,.05,0,.06ZM187,66.61l-.09.11,0-.14a.15.15,0,0,1,0-.15l.09-.1v.13A.18.18,0,0,1,187,66.61Zm.8,1.77.21-.08,0,.13s0,0,0,.06l0,.47Z" style="fill:#382f2d"/><path d="M173.11,65.48h0l0,.06a1.93,1.93,0,0,1,0-.25l0,0A.34.34,0,0,0,173.11,65.48Z" style="fill:#382f2d"/><path d="M137,56.42c0-.3.06-.3.07-.61a3.14,3.14,0,0,0,.05-.61,5.23,5.23,0,0,0-.15-.66,4.61,4.61,0,0,0-.2-.63,4.71,4.71,0,0,0-.19-.64,2.22,2.22,0,0,0-.29-.6c-.19-.27-.27-.2-.51-.43s-.17-.31-.41-.54l-.49-.42c-.24-.21-.46-.07-.46-.39s.2-.19.45-.41.21-.23.45-.45.27-.2.51-.43a2.37,2.37,0,0,0,.47-.48,2.24,2.24,0,0,0,.25-.62,4.7,4.7,0,0,0,.22-.63,4.4,4.4,0,0,0,.12-.65,3.55,3.55,0,0,0,.17-.64,2.74,2.74,0,0,0,0-.57c0-.28-.06-.28-.07-.56s0-.29,0-.57,0-.28,0-.56a5.52,5.52,0,0,1,0-.57c0-.29.06-.28.08-.57s0-.28,0-.56.07-.28.07-.57-.06-.28-.07-.56-.05-.28-.06-.57,0-.28,0-.56a5.3,5.3,0,0,1,0-.57c0-.28,0-.28,0-.56s0-.28,0-.57,0-.28,0-.56.08-.28.06-.57A3.38,3.38,0,0,0,137,37c-.05-.27-.06-.27-.11-.54s-.06-.27-.11-.54l-.1-.54s0-.08,0-.11h-.36v0l-.05,0,.09-.06.06,0,.06,0a.17.17,0,0,1,0-.07v0s0-.05,0-.07h.12a.75.75,0,0,0,0,.24.78.78,0,0,0,0-.28l-.12,0v-.1l.05,0h0a2.9,2.9,0,0,0-.2-.38c-.13-.25-.18-.22-.31-.46s-.12-.25-.25-.49-.15-.23-.28-.47l0-.07h0l-.06-.21h.05a.41.41,0,0,0-.13-.24c-.19-.2-.24-.14-.48-.28l-.47-.29-.25-.15v.06l-.05-.08-.18-.11c-.24-.14-.23-.16-.46-.3a2.91,2.91,0,0,0-.49-.27c-.25-.1-.27,0-.54-.1s-.26-.09-.53-.15-.29,0-.56,0-.26-.1-.53-.16a2.45,2.45,0,0,0-.54-.1,3.52,3.52,0,0,0-.65,0c-.22,0-.29,0-.42,0v.05h.17v.16l0,0,0,0a.28.28,0,0,1-.11.05l-.09,0,0-.12h0s0-.06,0-.09v-.05l0-.06h-.13a1.85,1.85,0,0,1-.34,0v0l0,.11-.11,0a.84.84,0,0,1-.23-.12h0c-.32,0-.32,0-.65,0l-.65-.05c-.33,0-.33-.06-.66-.06s-.33,0-.66,0-.32,0-.65.05-.32.1-.65.1-.34,0-.67-.05-.34,0-.67,0-.39-.19-.65,0,0,.27,0,.56,0,.29,0,.58-.09.29-.09.58.07.29.08.58,0,.29,0,.57-.07.29-.06.58.1.29.1.58-.09.29-.09.58.08.29.09.57-.08.29-.08.58.07.29.07.58,0,.29,0,.58.08.29.08.58-.09.29-.09.57.08.29.08.58,0,.29,0,.58,0,.29,0,.57,0,.29,0,.58,0,.29,0,.58.06.29.06.58,0,.29,0,.58-.08.29-.08.58,0,.29,0,.58,0,.28,0,.57,0,.29,0,.58,0,.29,0,.58,0,.29,0,.57,0,.29,0,.58,0,.29,0,.58,0,.29,0,.58v.57c0,.29,0,.29,0,.58s0,.29,0,.58,0,.28,0,.57,0,.29,0,.58-.08.29-.08.58.07.29.07.57-.06.3-.06.59.06.28.06.57-.06.29-.06.58,0,.29,0,.58,0,.29,0,.58.06.28.06.57,0,.29,0,.58,0,.29,0,.58,0,.28,0,.57,0,.29,0,.58,0,.29,0,.58-.07.29-.07.58,0,.28,0,.57,0,.29,0,.58,0,.29,0,.57,0,.29,0,.58,0,.29,0,.58v.58l0,.58c0,.29,0,.29,0,.58s0,.29,0,.58l0,.57c0,.29,0,.29-.06.58s0,.29,0,.58,0,.29,0,.58,0,.28,0,.57,0,.29,0,.58,0,.29,0,.58,0,.29,0,.58,0,.28,0,.57,0,.29,0,.58,0,.29,0,.58.05.29.05.58-.11.28-.11.57-.2.42,0,.61.36,0,.69,0,.34,0,.67,0,.34-.06.67-.06.33,0,.66,0l.65.05c.33,0,.33,0,.66,0s.32,0,.65,0,.32-.09.65-.1.33,0,.66,0l.65,0,.65,0a3.72,3.72,0,0,0,.66.08c.27,0,.26-.09.53-.18a3.29,3.29,0,0,1,.54-.14c.26-.06.28,0,.54-.07s.28,0,.55-.09a2.35,2.35,0,0,0,.54-.11c.26-.1.22-.19.46-.33l.47-.29c.23-.14.26-.09.49-.23s.22-.18.45-.32.26-.1.45-.3a1.38,1.38,0,0,0,.29-.46c.13-.24.17-.22.3-.46s.05-.29.18-.53.17-.22.3-.46.22-.21.31-.47,0-.28.07-.55,0-.28.06-.55.1-.27.15-.54,0-.28,0-.55a3.27,3.27,0,0,0,.13-.54,4.3,4.3,0,0,0-.05-.61c0-.3.05-.3,0-.61s0-.31,0-.61-.1-.3-.1-.61.05-.31.06-.61,0-.31.05-.61,0-.31,0-.61,0-.31,0-.61a6,6,0,0,0,0-.61c0-.31,0-.31,0-.62s0-.3,0-.6-.07-.31-.07-.61,0-.31,0-.62S137,56.73,137,56.42Zm-.94-22-.05-.16h.2l0,.13c0,.07,0,.11.05.25l0,.08-.17,0v-.17l-.4,0Zm-.77-.68,0,.19a.32.32,0,0,1,0,.17.79.79,0,0,0,0,.09l-.06.19.05,0v.27H135v-.21l.06,0,0-.42h0l.08-.08Zm-.2-.48.14.14-.27,0,0-.12Zm-.19,2A.22.22,0,0,0,135,35v0h.21V35c0,.18-.08.28-.27.31h0l-.06-.1Zm-9.27-3.78a.24.24,0,0,1,0-.09l0-.05.16,0,.06.16h-.27Zm-.34,1v.09a1.43,1.43,0,0,0,0,.22v.07h-.11l-.1,0,0-.21h0l0,0-.13,0Zm-1.31.51.11.12h0l0,0,0,.07h0v0l-.16.06V33H124Zm.14,1-.06.17a0,0,0,0,0,0,0l0,0h-.21l.06-.24L124,34Zm-1.06-2.48.11,0h0v.16h-.16v-.05L123,31.5l-.09-.17Zm-.39.33v-.1l.09.15h0v.05h0a.18.18,0,0,1,0,.07l.07.09h0l.07.14-.16-.14v.08l-.1-.16h0v0h0l-.16-.27Zm0,3.53a.11.11,0,0,1,0,0l0,.11-.07,0-.06,0-.07-.06.09,0,0,0,.13-.13Zm.11-2h-.12v-.15h.24l.11,0h.09v.08a1.29,1.29,0,0,0,0,.29v.06h-.21l0,0a.52.52,0,0,1,0-.23Zm.32,2.35,0,0h0l-.06,0,0,0v0h-.16v-.06c0-.16.08-.21.26-.23h0l0,.1Zm0-3.59v-.22l.11,0h0v.16Zm.56,1.44.08,0,.06,0,.15,0,0,.24-.22,0v0Zm.53.82,0,0v0h0a.06.06,0,0,0-.07,0h0s0,0,0,.06l-.05,0,.05,0a.25.25,0,0,1,0,.12v0l-.2.1,0-.07a1.22,1.22,0,0,0-.07-.17l0,0,0,0,0,0h.09a.91.91,0,0,1,0-.16l0-.06.21.1Zm.13-1.72v0a.25.25,0,0,1,0-.07v0l0,0,0-.07,0,0h0a.18.18,0,0,1,.15.13l0,.06,0,0,0,0h0v0h0v0l0,0h0l-.16.22,0-.25v0Zm.21,2.77v0a.31.31,0,0,1,0-.08l0-.08h0v0h.16v.27Zm.27-4.57h-.06v.06h-.16v-.27l.1,0,.17.08Zm.51,3.75a.08.08,0,0,0,0,0v0l-.25.08.09-.14a.27.27,0,0,1,.07-.08l.2-.22Zm.33,1.21v-.05h0v-.16h.21l0,.21ZM126,33l-.27.09v0a.34.34,0,0,1-.07.16h0v.16h-.05l-.15.05-.06,0-.07,0,0,0,0,0s0,0,0,0l-.38-.09.54,0,0-.17h0a.2.2,0,0,0,0-.05v0h0l.06-.06,0,0h0l.12-.07v0l.09-.09a.19.19,0,0,0,0-.1l.12-.34Zm4.49-.09a.35.35,0,0,0,0,.06v0l-.22,0v-.16l.29-.07Zm0,4h-.06v0l-.16,0v-.16h.16Zm-.21-5.13a.3.3,0,0,1,.11.07h0l.13.11h-.15V32h-.16l0,0a.17.17,0,0,1,0-.17l0,0Zm-.56-.58v-.6l.12.44c0,.05,0,.05.06.08l0,0h0l.05,0V31l.16.24h0l.05.06H130v-.06h-.48Zm.26,2.6,0,.2-.1-.09h-.05l0-.26Zm-1-1h.21l-.05.15h-.16Zm-.11,1.05.24,0v.22h-.12a.41.41,0,0,0-.11-.07l0,0Zm0-1.84,0,.11v.05h-.22v-.12Zm-.5,2.44-.1-.08,0,0a.21.21,0,0,1-.1-.09l-.05-.08H128v0h.21l-.28-.06.65,0v.16l-.37-.07Zm.26-1.84-.49,0,.08-.29H128l0-.18-.05,0,0,0V31.9l.39-.08.07.27h-.06l0,.28Zm-.34-1.09.27.05v.1l-.05,0-.16,0v-.05h-.06Zm-1,1.45h.06l0,.06V33h-.16v-.21Zm-.35-1.14a.37.37,0,0,0,0,.16h0v0l0,.05v0l-.15.08V32h0l-.12,0-.1,0,0-.1a.51.51,0,0,0,0-.25l0-.08h0v-.05h.1l0,0s0,.06.1.07h0Zm-.06-.75V31a.18.18,0,0,1,0,.06.28.28,0,0,1,0,.08v.08l-.07,0c-.14,0-.21,0-.25-.14l0-.07Zm-.06,4.61v.2h-.22v0l0,0,0-.07Zm-.1.65,0-.06a.17.17,0,0,0-.06-.09l-.06,0,0-.06,0,0h0l0,0h.05l0,0,0,0a.26.26,0,0,1,.06.14v.06Zm.51-1-.07,0h0a.06.06,0,0,0-.06,0l0,0-.1,0v0a.28.28,0,0,1,0-.11V35h.06a.52.52,0,0,0,.26-.11l.11-.07Zm-.18-.79v-.22h.15l0,.27-.12,0,0-.08Zm.15-.53v-.06l-.19,0v-.05a.31.31,0,0,1,0-.15v-.07h.06c-.06-.06-.11-.11,0-.18l0-.07v-.15h.06V33l0,.13H127v.09h0l0,.06v.07h.12v0a.58.58,0,0,0,0,.09.44.44,0,0,1,.07.19h.17v.15Zm.51-1h0a.24.24,0,0,1-.09.07l0,0,0,0,0,0,0,0,0,0v-.06l0,0,0,0a.32.32,0,0,1,.13,0l.07,0Zm-.12-1.76.68,0-.08.16-.05,0,0,0Zm.45,2h-.1l0,0,0-.05a.28.28,0,0,1-.06-.19V32.8l.09,0,.21,0h.08v.08A.44.44,0,0,1,128,33a.41.41,0,0,1,0,.09Zm.43,1.47s0,0,0,0l0,0-.1,0h-.06l0,0H128l-.05-.16H128v-.05l.1.06a.3.3,0,0,0,.15,0h.08Zm.27,0a.17.17,0,0,1-.1.14l-.08,0v-.23l.22-.06Zm2.24,23.84c0,.26-.08.26-.09.52s0,.26,0,.52-.09.25-.09.51a4.57,4.57,0,0,0,.05.52c0,.26,0,.26,0,.52s.07.25.08.51,0,.26,0,.52a4.43,4.43,0,0,1,0,.51c0,.26,0,.26,0,.52s0,.26-.05.52a4.26,4.26,0,0,0,0,.51,1.75,1.75,0,0,1,0,.56,1.14,1.14,0,0,1-.22.52c-.13.25,0,.35-.27.5s-.29,0-.57.07c-.12,0-.11.11-.24.11s-.1-.14-.23-.14-.11.1-.23.11-.17,0-.2-.07c-.09-.27,0-.29,0-.58s0-.29,0-.58,0-.29,0-.58,0-.29,0-.58-.05-.29-.05-.58,0-.29,0-.58,0-.29.06-.58,0-.29,0-.58,0-.29,0-.57,0-.29,0-.58,0-.29,0-.58,0-.29,0-.59-.05-.28-.06-.57-.06-.29-.07-.58.08-.29.08-.58,0-.29,0-.58,0-.29,0-.58,0-.29,0-.58,0-.29,0-.58-.06-.31,0-.58c0-.09.12-.08.22-.07s.1.12.23.12.11-.07.23-.07a.93.93,0,0,1,.24,0c.28,0,.32-.07.56.08s.17.23.3.48.19.24.24.52-.1.28-.11.57a2.44,2.44,0,0,0,.06.52,2.85,2.85,0,0,1,.07.51c0,.26,0,.26,0,.52s0,.26,0,.51A4.55,4.55,0,0,1,130.84,58.41Zm-.08-17.36c0,.32,0,.33,0,.65s-.06.32-.06.64.07.33.09.65,0,.32,0,.65.08.32.08.64,0,.33,0,.65,0,.32-.05.64,0,.32,0,.64a1.82,1.82,0,0,1,0,.57,1.11,1.11,0,0,1-.22.51c-.13.25,0,.36-.27.51s-.29,0-.57.06c-.12,0-.11.11-.24.11s-.1-.13-.23-.13-.11.09-.23.11-.17,0-.2-.07a1.5,1.5,0,0,1,0-.56c0-.28,0-.28,0-.55s0-.28,0-.56,0-.28,0-.55-.05-.28-.05-.55,0-.28,0-.56,0-.27.06-.55,0-.28,0-.55,0-.28,0-.56,0-.27,0-.55,0-.28,0-.55,0-.28,0-.56-.05-.27-.06-.55-.06-.28-.07-.55.08-.28.08-.56,0-.27,0-.55,0-.28,0-.55,0-.28,0-.56,0-.27,0-.55-.05-.3,0-.56c0-.09.12-.07.22-.06s.1.11.23.11.11-.06.23-.06a.93.93,0,0,1,.24,0c.28,0,.32-.07.56.08s.17.23.3.48.19.24.24.52-.1.28-.11.57.08.32.12.64-.05.33,0,.65.09.32.09.65S130.78,40.73,130.76,41.05Zm-.24-5,.08-.05.05,0,.08,0v.31l-.12-.1,0,0Zm.44-4.9,0,0a.66.66,0,0,1-.29.09h-.06V31h0a.7.7,0,0,0,.19-.06l.08,0v.06H131Zm.28,4.61h-.17l0-.08a.2.2,0,0,1,0-.08l0,0,.05,0,.06,0Zm1.21-4.52a.15.15,0,0,1,0-.08l0-.12h0l.06,0,.08,0v.11h0v.26l-.35-.06Zm-.63.65v-.07h-.23v-.15l.27,0v.06l.46-.08,0,.1,0,0a.64.64,0,0,0-.05.15h.23l.06.16,0,0-.06.08,0,.13-.07-.13a.29.29,0,0,0-.1-.13h0v-.06h-.07V32l0,0,0,0-.14.21,0-.25h0c0-.09,0-.11-.08-.14Zm.13.62,0,0h0l0,0,0,0h0l-.07-.13.87.22H132Zm.45.56,0,0-.08,0v-.17l.15-.06V33Zm.33,1.25-.2-.29-.07-.09h0s0,0,0-.08v-.09l.08,0h0v0s0,0,0,.06v.06h.12V34a.64.64,0,0,1,0,.07l0,.07Zm.07-.33s0,0,0-.1v-.57l.17.74Zm.32-1.17v.11L133,33l-.16-.08v-.1l0,0a.25.25,0,0,0,.18-.21h0s0,0-.05,0l-.11,0,.27-.14,0,.17h0v0l0,.24Zm.4-1.05h.16v.1h0V32h-.12v-.1l0,0h0v-.12Zm.16,1.19,0,.08a.08.08,0,0,1,0,0h0l-.11,0h0l-.07-.15Zm-.35.45,0,0-.07-.07.09,0h.09l.09.28Zm.42,4.12v.06l-.34-.05v-.1h.05a.46.46,0,0,1,.26,0l.1,0Zm.31-3.34a.12.12,0,0,1-.06-.08l-.07-.16.15.08a.2.2,0,0,1,.08.1l.05.21Zm.33-1.44a1.48,1.48,0,0,0,0,.22,1.06,1.06,0,0,1,0,.32v0l-.12.05.06.22,0,0a.18.18,0,0,0-.09.06l0,0-.44-.08,0-.07a.34.34,0,0,0,0-.14.46.46,0,0,1,0-.21v0h.06a.19.19,0,0,0,0-.16l0,0,.07-.33.07,0,.13,0h0v-.12h.16v.12h.12v-.11l.16.1Z" style="fill:#382f2d"/><path d="M205.74,63c0-.3-.11-.29-.16-.57s-.07-.29-.13-.58-.07-.28-.12-.57,0-.29-.1-.58-.07-.28-.13-.57a5.81,5.81,0,0,0-.09-.58c-.08-.28-.12-.26-.22-.54s-.07-.29-.17-.57-.05-.29-.15-.56-.13-.27-.23-.55l-.2-.55c-.1-.27-.1-.27-.22-.54a5.2,5.2,0,0,0-.26-.53c-.14-.25-.12-.27-.26-.53l-.28-.51c-.14-.26-.13-.27-.27-.53s-.13-.26-.27-.51l-.29-.52c-.13-.26-.21-.22-.34-.48s-.06-.31-.19-.57-.2-.22-.34-.49,0-.3-.19-.56-.14-.25-.28-.52-.15-.25-.28-.51-.18-.21-.31-.44-.09-.27-.22-.5-.14-.23-.28-.46-.15-.23-.28-.46-.06-.28-.19-.51-.19-.21-.31-.45,0-.27-.16-.51-.15-.23-.26-.48-.06-.27-.16-.52-.11-.24-.21-.49-.1-.25-.21-.5-.16-.22-.26-.47-.05-.27-.13-.53-.13-.24-.22-.49,0-.28-.11-.53-.11-.25-.2-.5-.05-.27-.14-.52a5.21,5.21,0,0,1-.2-.5,3.31,3.31,0,0,1-.06-.54c0-.27,0-.27-.06-.53s.06-.28,0-.55-.07-.26-.09-.53,0-.27,0-.53a4.87,4.87,0,0,1,0-.54c0-.36-.16-.4-.05-.74s.24-.28.48-.55.2-.32.53-.47.34,0,.7,0,.35-.12.64,0,.28.19.46.46.27.27.34.59-.14.34-.14.68a4,4,0,0,0,.07.48c0,.25,0,.25,0,.49a4,4,0,0,1,.07.48,4.15,4.15,0,0,1,0,.49c0,.25,0,.24-.05.49a4,4,0,0,0-.07.48,4.15,4.15,0,0,0,0,.49c0,.24,0,.24,0,.48a4.12,4.12,0,0,1,0,.48c0,.25,0,.25,0,.5l0,.5c0,.25-.2.35,0,.52s.27-.08.53-.1.25.07.5,0,.25-.09.5-.09.24.09.49.11.25,0,.49,0,.25,0,.49,0,.24-.08.49-.1.25.06.49,0a4.1,4.1,0,0,1,.49-.06c.25,0,.25,0,.5,0l.5,0c.25,0,.36.25.53.07s-.08-.28-.1-.54,0-.26,0-.52.05-.26.05-.52a4.36,4.36,0,0,1,0-.51c0-.25,0-.25,0-.51s0-.25,0-.5,0-.26,0-.51-.09-.25-.11-.51a4.19,4.19,0,0,1,0-.5c0-.26-.07-.26,0-.51s0-.25.06-.51a2.09,2.09,0,0,0,0-.5,2.3,2.3,0,0,0-.11-.57c-.06-.28-.07-.28-.13-.57s-.07-.28-.13-.57,0-.3,0-.59a2.86,2.86,0,0,0-.13-.58,2.6,2.6,0,0,0-.31-.5l-.28-.51c-.15-.26-.17-.24-.32-.5s-.11-.26-.26-.52a1.55,1.55,0,0,0-.32-.48c-.19-.22-.24-.15-.49-.31s-.23-.18-.48-.34-.2-.22-.44-.38-.26-.14-.51-.3a2.3,2.3,0,0,0-.49-.32,2.71,2.71,0,0,0-.58-.12c-.28-.07-.28-.06-.57-.12s-.27-.09-.42-.14h-.05l-.09,0c-.28-.07-.29,0-.57-.1a4.1,4.1,0,0,0-.43-.14l-.24.06v-.05H198a3.11,3.11,0,0,1-.38.16c-.29.07-.3,0-.58.1s-.29,0-.57.1-.27.12-.55.19l-.38.11h0v.17l-.11-.12,0,0h-.06c-.26.06-.32-.06-.53,0H195v.21l-.16.06v-.05l-.23-.05h0a1.51,1.51,0,0,1-.23.26c-.23.18-.25.15-.48.33s-.2.22-.4.38v0h-.05v.05l0,0-.13.12,0,.25h-.06l-.09.06v-.17l-.08.07-.47.35c-.22.18-.26.13-.43.36a1.67,1.67,0,0,0-.27.51c-.11.27-.12.27-.23.54l-.22.53c-.11.27-.1.27-.21.54s-.14.26-.24.53a2.76,2.76,0,0,0-.19.55c-.08.29,0,.3,0,.59s-.07.29-.11.58,0,.29-.05.58-.1.28-.14.57,0,.28-.09.57a2.27,2.27,0,0,0,0,.58,2.8,2.8,0,0,0,.09.58c.05.3,0,.3.05.59s.06.29.11.58.08.29.13.58,0,.29.09.58,0,.31,0,.59.11.28.19.57,0,.29.13.57.14.27.22.55.07.29.15.58,0,.29.14.57.06.29.16.57.17.25.3.52.1.28.23.54.17.25.3.51l.26.53c.13.27.14.27.26.53s.13.27.25.54.15.26.27.52.09.29.22.55.15.26.28.53.16.25.29.51.05.3.18.57.1.28.24.54.16.27.32.54.19.25.35.52.16.27.32.54.2.25.36.51.12.29.27.57a5.74,5.74,0,0,1,.32.53c.14.29.15.28.28.56s.11.3.25.58.11.29.25.57.13.29.25.57.2.26.32.54.06.32.19.61.15.27.27.56.14.28.26.57a2.81,2.81,0,0,1,.19.58,3.26,3.26,0,0,1,.11.61c0,.31,0,.32,0,.63s.12.3.16.61,0,.3.09.61,0,.32,0,.63a1.71,1.71,0,0,1,0,.81,1.45,1.45,0,0,1-.32.75c-.24.33-.2.45-.57.62s-.44.06-.85,0-.46.08-.83-.1-.33-.28-.59-.6-.32-.31-.44-.7,0-.42,0-.83,0-.35,0-.69a4.65,4.65,0,0,1,0-1.36c0-.34,0-.34,0-.68a5.34,5.34,0,0,0,0-.69c0-.34-.12-.33-.12-.68a5.51,5.51,0,0,1,.06-.7c0-.35.26-.41.06-.7s-.26,0-.51,0l-.5,0c-.25,0-.25,0-.5,0a4,4,0,0,1-.49,0c-.25,0-.24,0-.49-.06s-.24,0-.49,0a4.15,4.15,0,0,0-.49,0c-.24,0-.25,0-.49,0s-.24.12-.49.12a4.21,4.21,0,0,1-.5,0c-.25,0-.24-.09-.5-.11s-.34-.17-.51,0,.07.27.08.53,0,.26,0,.52a4.63,4.63,0,0,1,.07.52,4.21,4.21,0,0,1,0,.51c0,.25-.05.25-.07.51a4.33,4.33,0,0,0-.08.5,4.18,4.18,0,0,0,.06.51c0,.26,0,.25,0,.51a2.85,2.85,0,0,1,0,1c0,.25,0,.25,0,.51s-.09.25-.06.5a2.67,2.67,0,0,0,.1.62c.07.3.17.27.24.58s0,.31.08.61l.14.61a2.51,2.51,0,0,0,.15.6c.12.28.17.25.34.51s.13.29.3.55l.16.24v-.13h.12l0,0a.35.35,0,0,1,.07.09l0,.06-.05,0,0,0-.09,0,.07.1.33.52a1.65,1.65,0,0,0,.39.48c.23.21.28.13.55.28s.23.21.51.36.29.12.56.27.25.18.52.33A2.87,2.87,0,0,0,195,72a2.44,2.44,0,0,0,.61.11c.3.06.3.09.6.15l.61.11.61.11c.3.06.29.13.6.12s.27-.06.55-.15.29,0,.56-.09.27-.09.55-.16.26-.11.53-.19.3,0,.57-.08a1.53,1.53,0,0,0,.55-.17c.25-.13.18-.23.39-.42l.45-.35c.22-.19.23-.17.45-.36s.18-.22.39-.41.22-.17.44-.36.32-.08.49-.31.05-.3.16-.57.14-.25.25-.51.14-.25.24-.52.09-.27.2-.54.14-.25.24-.51a2.72,2.72,0,0,0,.18-.55c.08-.27,0-.29,0-.57s.09-.28.13-.56.07-.28.11-.56,0-.29.07-.57.05-.28.09-.56A2.3,2.3,0,0,0,205.74,63Zm-3.59-31.18h0v-.05h.16v.16h-.22Zm-1.48-.45a.2.2,0,0,1,0-.09l0-.06.16,0-.05.16h-.16ZM198,30.7l-.05.16h-.16l-.05-.16Zm-3.83.91h0l0-.22h.1l0,0a.59.59,0,0,0,0,.08l.05.09-.06,0h-.06l-.07,0Zm0,.61V32h.07l0,0,0,0s0,0,0,.06l0,.1Zm1.37-1.11-.09.05,0,0-.09.05v-.17l.15-.24V31l.43,0Zm-3.22,28.65v.16l-.14.06v-.17Zm0,5.13V65a.41.41,0,0,1,0,.11l0,.17-.18-.29Zm.14,5.4-.11-.14.11.3-.15.06,0-.08a1.08,1.08,0,0,1-.12-.22l0,0,.14-.11-.11-.14,0-.06,0,0,.08,0,0,0,.1.06.31.08-.36,0Zm.82-8.5-.07.06a.24.24,0,0,1-.09.08l-.06,0,0-.09h0l-.12-.14,0,0,0,0v0h.11c.09,0,.14,0,.2.07l.05,0Zm1.26,1.52a.89.89,0,0,1,0-.15v-.07h.19l.08.2h-.08l-.08,0h-.06Zm.06,2.25.11,0,0-.1.23,0v.09l0,0h0v.18l-.14.05Zm.59,4.13s0,0,0,.12v0l-.2.08-.06-.15,0,0c.07-.06.07-.06.06-.15v-.06h-.1l0,0,0,0,.09-.08.05,0a.23.23,0,0,1,.11.07h0v0a.79.79,0,0,1,.08.16l0,0Zm.62-.91-.07.12-.06-.16-.14.12,0,0-.05,0v-.09a.42.42,0,0,0,0-.14h0l-.11,0-.11-.14-.16.06L195,68.4h.07a.49.49,0,0,0,.17-.06l.07,0,0,0a.14.14,0,0,0,.1.07h0l0,.06.16-.06v.09s0,.06,0,.14h0l.12,0v.19Z" style="fill:#382f2d"/><path d="M151.29,27.31v0Z" style="fill:#e43d30"/><path d="M159.61,47.82c-.12-.22-.24.1-.49.17l-.5.12c-.25.07-.27,0-.52.06a2.78,2.78,0,0,0-.48.18,3.06,3.06,0,0,0-.49.22c-.24.13-.25.09-.49.21l-.48.24c-.24.13-.2.21-.44.32s-.25.09-.5.2-.24.13-.48.24-.25.09-.5.2-.28,0-.51.17-.21.19-.42.37-.24.15-.45.33a1.6,1.6,0,0,0-.38.4c-.2.28-.24.56-.46.38s.1-.31.19-.58.15-.26.25-.53.08-.28.18-.56.08-.28.17-.56.09-.28.18-.55,0-.3.13-.57.12-.27.21-.55.16-.26.25-.53a3.77,3.77,0,0,0,.18-.57c.07-.28,0-.29,0-.58s.09-.28.13-.57,0-.29.06-.57,0-.3,0-.58.08-.29.12-.57.07-.29.1-.57,0-.3,0-.58,0-.3,0-.59a5.21,5.21,0,0,0,.09-.57c0-.29.06-.28.07-.57s0-.29,0-.58,0-.29,0-.58,0-.29,0-.58,0-.29,0-.58,0-.29,0-.57,0-.29,0-.58,0-.29,0-.58.1-.3.06-.59-.15-.26-.24-.53,0-.29-.13-.57-.13-.26-.22-.53,0-.29-.13-.57-.14-.25-.23-.53-.06-.28-.15-.56-.16-.25-.25-.52,0-.29-.13-.57-.12-.27-.21-.54-.06-.29-.16-.57-.14-.26-.24-.54-.07-.29-.18-.56-.12-.28-.22-.55-.15-.26-.26-.53-.07-.29-.18-.57-.05-.29-.16-.57l0-.07h0v0l-.14,0v-.05a.11.11,0,0,1,.06-.09l0,0a1.75,1.75,0,0,1-.19-.37c-.11-.27-.12-.27-.22-.55s0-.3-.14-.58-.13-.26-.24-.54-.07-.29-.18-.57-.18-.24-.28-.53,0-.3-.08-.59-.11-.27-.19-.56l0-.13a.39.39,0,0,0-.14.1l-.06.06v-.29l.05,0h0s0,0,0,0v0h.06a1.93,1.93,0,0,0-.06-.3c-.08-.28-.11-.27-.19-.56s-.09-.28-.17-.56-.09-.28-.16-.57-.1-.28-.18-.56,0-.3-.11-.58-.09-.28-.17-.57-.06-.29-.14-.57-.09-.28-.17-.57-.08-.28-.16-.57a2.79,2.79,0,0,1-.14-.57,2.91,2.91,0,0,1-.09-.58c0-.3,0-.3,0-.6s0-.29,0-.58,0-.3,0-.59,0-.3,0-.59.05-.3,0-.59-.08-.29-.09-.59l0-.59c0-.29,0-.29,0-.59s.05-.29,0-.59,0-.29,0-.59-.1-.29-.11-.59a2.33,2.33,0,0,1,0-.59c0-.29.13-.28.19-.56s0-.3.06-.59.07-.28.13-.57.07-.29.14-.57.08-.28.14-.57.07-.28.13-.57.08-.28.14-.57,0-.3.07-.59,0-.29.11-.57.15-.27.21-.56l.12-.57c.06-.29.07-.29.13-.58s-.1-.35,0-.61.2.06.27-.06-.06-.09,0-.22.15,0,.19-.15-.11-.08-.18,0a1.92,1.92,0,0,0-.36.44c-.17.23-.18.22-.35.45s-.13.26-.29.49-.18.22-.35.46-.19.2-.36.43l-.33.47c-.17.23-.17.23-.33.47s-.18.22-.35.45l-.34.47a2.67,2.67,0,0,0-.3.49,3.18,3.18,0,0,0-.21.54c-.08.27,0,.29-.09.57s-.07.28-.15.56-.16.26-.24.54l-.16.55c-.08.28,0,.29-.12.57s-.12.27-.2.55,0,.29-.11.57-.07.29-.15.57a5,5,0,0,0-.21.54,5.42,5.42,0,0,0-.06.58c0,.28-.1.27-.15.56s0,.29-.07.58-.07.28-.11.57,0,.29,0,.58,0,.29-.07.57,0,.29-.08.58-.11.27-.16.56,0,.29-.07.58a4,4,0,0,0-.11.58,3.85,3.85,0,0,0,.08.58c0,.29.08.28.11.57s0,.29,0,.58,0,.29,0,.58.07.28.1.57,0,.3,0,.58.1.29.13.58,0,.29,0,.58l.06.58c0,.29,0,.29,0,.58s0,.29.05.58.07.29.1.58,0,.3,0,.59.11.29.14.58,0,.3,0,.59.1.28.13.58,0,.29,0,.58,0,.31,0,.6.1.28.15.57.07.28.12.57,0,.3,0,.59.09.29.14.58,0,.29.07.58.12.28.15.58a3.75,3.75,0,0,1,0,.58c0,.3,0,.3,0,.59s0,.29,0,.59,0,.29,0,.59,0,.29,0,.58.09.3.09.59,0,.3,0,.59-.08.3-.09.6.08.3.07.6l0,.6c0,.29,0,.29,0,.59s-.06.3-.07.6,0,.3,0,.6.25.46,0,.57-.11-.22-.23-.47l-.24-.49c-.12-.25-.09-.27-.21-.51s-.19-.22-.31-.47-.05-.27-.17-.52a2.54,2.54,0,0,0-.26-.49c-.16-.22-.22-.17-.41-.36l-.37-.38c-.18-.19-.13-.24-.32-.43s-.2-.19-.38-.38-.24-.14-.43-.33a3.44,3.44,0,0,0-.35-.41c-.19-.19-.23-.14-.44-.31s-.17-.21-.37-.38-.18-.2-.39-.38-.25-.11-.45-.29-.17-.22-.37-.39-.17-.22-.4-.37a3.72,3.72,0,0,0-.57-.27c-.28-.13-.3-.09-.58-.23s-.28-.12-.56-.26-.26-.18-.54-.32-.36-.51-.58-.29.13.31.26.6.19.26.32.55.13.28.27.57.07.32.2.6.2.26.33.55.07.27.19.51.1.25.22.49.14.23.26.48.11.24.22.49l.24.49a3.58,3.58,0,0,1,.24.48,4.36,4.36,0,0,1,.17.51c.06.26.07.26.13.52s0,.27.09.54,0,.27.08.53.1.26.16.52a4.89,4.89,0,0,1,.09.53A5.34,5.34,0,0,1,140,40c0,.27.06.27.11.53l.1.53c.05.27,0,.27.07.54s.06.26.11.53a2.31,2.31,0,0,1,.12.52,3.22,3.22,0,0,1,0,.62l-.06.61-.06.62c0,.3-.07.3-.1.61s0,.31,0,.62-.08.3-.12.6,0,.31,0,.62-.07.3-.1.61,0,.31,0,.62a3.27,3.27,0,0,1-.07.62,4.5,4.5,0,0,1-.21.58c-.09.29-.1.29-.19.58s-.09.3-.18.6,0,.3-.15.6-.09.29-.16.59a4.31,4.31,0,0,0-.1.61c0,.3,0,.31-.08.61s-.11.3-.15.6,0,.32,0,.62-.07.3-.11.61l-.08.55c0,.28,0,.28-.06.56s-.07.27-.11.55,0,.28,0,.56-.1.27-.14.54a3.6,3.6,0,0,0-.08.56c0,.28.1.28.12.55s-.06.29,0,.57l0,.56c0,.27.06.27.08.55s0,.28,0,.56c0,.13,0,.2,0,.26l.07-.08,0,0,.07,0,.05,0,0,0,0,0-.08.09-.16-.14a1.87,1.87,0,0,0,0,.29c0,.28.1.27.12.55h0l0-.1,0,.1a.36.36,0,0,1,0,.1v.2l-.09-.18v0a3.1,3.1,0,0,0,0,.46c0,.28.07.28.09.55s-.05.29,0,.57.07.27.09.55a3.33,3.33,0,0,0,.1.55,2.48,2.48,0,0,0,.12.54c.1.26.17.23.27.49s.09.25.15.39l.19-.14-.17.2,0,.08.2.51,0,.07h0l.12,0-.1.12c0,.13,0,.18.12.37a4.71,4.71,0,0,0,.21.52c.12.27.1.28.23.55s.15.26.28.52.15.26.29.52.06.33.24.56.28.14.52.32l.46.37.47.37c.23.19.19.24.43.41s.28.13.53.28.23.2.48.35.28.12.54.27.21.25.5.34.3,0,.6,0,.3,0,.59,0,.3,0,.6,0a1.45,1.45,0,0,1,.59.05c.1,0,0,.2.11.2s0-.19.1-.19,0,.17.11.17,0-.16.1-.17c.42,0,.41.12.83.06h.1a.28.28,0,0,1-.06-.08h0v0a.12.12,0,0,0,0-.11l0,0,0,0a.3.3,0,0,1,.12,0,.19.19,0,0,0,.11,0h0v0a.08.08,0,0,1,0,0,.67.67,0,0,0,.06.12,1,1,0,0,1,.41-.17c.41-.08.43.09.83,0s.33-.27.72-.42.32.08.57,0,.1-.32.34-.48.37.07.59-.11,0-.33.24-.54.4-.07.6-.34,0-.36.2-.66.35-.17.49-.48-.05-.37,0-.7.11-.21.23-.43a1.54,1.54,0,0,0,.21-.45c.06-.23-.05-.24-.05-.49a2.1,2.1,0,0,1,0-.5c0-.24.13-.22.21-.45a1.34,1.34,0,0,0,.14-.47c0-.25,0-.25-.06-.49a2.94,2.94,0,0,1-.08-.49,5,5,0,0,1,.08-.54c0-.27.08-.26.11-.53s0-.27,0-.54.08-.27.11-.54,0-.27,0-.54,0-.27,0-.54,0-.27,0-.54.07-.27.07-.54,0-.27,0-.54a3.27,3.27,0,0,1,0-.54,4.51,4.51,0,0,1,.08-.53c.06-.27,0-.27.09-.54s.12-.24.18-.51,0-.27.1-.53.08-.26.14-.52,0-.27.11-.53.11-.25.17-.51,0-.28.06-.55.14-.24.2-.51a2.29,2.29,0,0,1,.11-.52,2.7,2.7,0,0,1,.29-.56c.15-.28.14-.29.29-.57a4.37,4.37,0,0,0,.32-.55,6.21,6.21,0,0,0,.2-.61c.11-.3.13-.29.24-.59a3.86,3.86,0,0,1,.21-.6,3.8,3.8,0,0,1,.36-.53c.19-.26.22-.24.4-.5s.2-.25.37-.52.1-.29.25-.55.18-.25.32-.51S159.75,48.09,159.61,47.82Zm-7-13.63h0l.08,0h0v.11l-.07,0,0,0-.05,0a.13.13,0,0,1-.06,0l0-.09ZM139.1,59.83s0,0,0,0l0-.06,0,0,.1-.07,0,0c.1.12.09.18,0,.31l0,0-.08,0,0-.09v0h0Zm.11,3.2.09.14,0,0-.09.06,0,0-.09-.08v0a.42.42,0,0,0,.06-.14h0V63a.19.19,0,0,1,0-.07v0h0s0,0,0,0l.22-.13Zm1-.89.13.1,0,0,.07.06h-.15l-.06-.08ZM140,66.59l.09.07-.07.09,0,0h-.11Zm-.32-6.87h.12l0,0a.43.43,0,0,1,0,.05v.13l-.08-.1,0,0v0l0,0Zm0,1.92s0,0,0,0l0,0,.11-.13.11.16h-.11l0,.12Zm.41,5.62a.27.27,0,0,1-.16.06h-.07l0,0,0,0h-.09l.12-.05h0l.14-.06H140l.09.08Zm.12-5.3-.12-.14.14-.11,0,0h0v.06a.16.16,0,0,1,0,.05Zm.11,1h0l0-.18.11.13s0,0,0,0l.1.07h-.15l0,0,0,0Zm.13,1.72-.12-.05.14-.16,0,0a.23.23,0,0,1,0,.07l0,0Zm.6-3.27a.28.28,0,0,0-.06.08l0,0,0,0a1.86,1.86,0,0,0-.19-.22l0,0,.11-.14h0a.47.47,0,0,1,.19.12h0l.07-.08.09.07-.07.07Zm.33,5.18,0,0,0,0a.28.28,0,0,0-.1-.09l-.08,0,.09,0,.07,0h.08l0,0C141.34,66.52,141.34,66.54,141.31,66.59Zm0-8.94V57.5a.26.26,0,0,1,0-.11l0,0,.08.07Zm.13,6.66,0,0,0,0,.07-.09.18.15,0,.08-.15.06Zm.21,4.72,0-.06-.06-.12,0,0,.13-.08v.07s0,0,0,.11l0,0Zm0-6.58h0l0,0-.1-.08.08-.09.12.11Zm.25-2.13a.77.77,0,0,0-.17-.11l0,0,0,0,0,0,0,0h.07a.23.23,0,0,1,.11,0h0v0c0,.06,0,.1,0,.12v0h0a.05.05,0,0,0,0,0l0,0,0,0,.11.13-.14-.09-.07.13h-.19l.07-.08,0,0,.05-.1,0,0ZM142,70.41s0,.07,0,.1a.47.47,0,0,1-.06.19l0,0-.09-.07v0a.22.22,0,0,0,0-.1h0a.46.46,0,0,1,0-.13l0-.08.07.06Zm.1-7.7-.1,0,0,0-.1-.08.08-.09,0,0h0a.21.21,0,0,1,.11,0l.11,0Zm.25,4.49,0,0h-.05l0,0,0,0,.09-.1,0,0h0l0,0Zm.85-6.74v.09a.09.09,0,0,0,0,.05h0l0,0-.08.1-.09-.08,0,0,0,0Zm-.56-2,0,0,0,0,.07-.09.09.08v0h0a.11.11,0,0,0,0,.07h0l-.07.08Zm.13,8.61a.14.14,0,0,1,0-.14l0-.05,0,0h0l.05,0v0l0,0-.11.13Zm.17,4.5-.1-.08h0v0l0-.05.09.07Zm.12-5.87-.21-.17,0,0a.17.17,0,0,1,.21,0l0,0Zm.13-4.62a.12.12,0,0,1-.09,0h0l-.09,0,.08-.05a.14.14,0,0,1,.12,0h.1Zm.33,7.29-.17-.15,0-.06.19.12Zm.07-9.66a.48.48,0,0,0-.1-.12l0-.06.25.17,0,0,0,0-.09,0h0S143.64,58.72,143.61,58.68Zm0,.52.18-.15,0,.05a.25.25,0,0,1,0,.07h0l0,.09-.06,0a.13.13,0,0,0-.08,0Zm.33,6.43a.62.62,0,0,1-.1.2l0,.06,0-.07a.29.29,0,0,1,0-.09s0,0,0-.08v0l.19-.15.07,0Zm.39-.13-.13.21,0,.06-.13-.19,0,0a.41.41,0,0,1,.1-.06l.11,0,.23-.18Zm.19-2.45h0v0l-.06.06h0l-.13,0,0,.06,0-.06a.48.48,0,0,1,0-.11.14.14,0,0,0,0-.06l-.05-.15.14.12v0a.4.4,0,0,0,.08-.12l0-.05.06.05h.1l-.12.14.21.11Zm.08-1.65s-.08.06-.11.06-.07,0-.12-.07l0,0,0,0-.13-.1,0,0V61.1l.06,0,.33.23Zm.34,8.35,0-.06h0l0,0v0l0-.06.07.1Zm.08-9-.09-.08.05,0a.2.2,0,0,1,.1,0l.09,0Zm.25,2-.09-.07.37-.26Zm1.29-37.07,0-.09a.36.36,0,0,0,0-.11v0l.06,0v0h0l0,0,.06-.17v.18h0c0,.07,0,.08.07.09h0v0h0l.15,0,0,.1-.17,0v0Zm.16,39.56,0-.06v0h0a.27.27,0,0,1,0-.18l0,0,.2.1Zm.3,6.88-.13-.11L147,72l.15.09Zm1.17-43.61h-.16v0l-.08-.11-.13-.17h-.08l0-.1.1,0,0,.13Zm-.37-4.66.07.05h0v.18l-.13-.08Zm0,3a.18.18,0,0,0,0-.1v0a.76.76,0,0,0,0-.14v-.19l.06.11v0l.08.15-.07.05v0a.09.09,0,0,0,0,.06l.06.05L148,27h0l-.18.09Zm-.26-2.25s0,0,0,0v0l.14,0,0,.11-.18.08Zm.08,2.23v0h0l-.06,0,0,0-.06-.1.18,0ZM148,65.38l0,0-.06,0,0,0v0h0l-.05,0,.07-.07a.5.5,0,0,0,.11-.13l0,0,.09.07Zm.19,6.67H148v0a.09.09,0,0,1,0,0v-.09l.06.08,0,0,0,0Zm.17-42.93h0a.13.13,0,0,0-.07,0h0v0h0s0,0,0,0l-.14.13.07-.18s0,0,0-.07l0,0,0,0a.17.17,0,0,1,.1-.12l0,0,0,.11.08,0Zm.92-4.54,0,.2.11,0,0,.12h.08V25l-.24.1-.07-.17h0l0-.18-.21,0Zm.56.9-.43.1,0-.11h.41Zm-.11-1.31.11,0,0,.14h-.1l0,0Zm-.75-.71,0,0,.07.05,0,0h0v0l-.14,0-.06-.23Zm-.32-.14a.14.14,0,0,1,0-.11l0,0,0,.14-.13.08Zm-.14.45h0l.08,0h0v.07l-.15,0,0-.14Zm.15,5.37-.06,0h-.05l0,0-.09-.05.08,0v0h0l.09,0,0,0,0,.14Zm.14-1.67h0l0,0s0,0,0,0l-.07.07v-.1a.11.11,0,0,1,0-.06s0,0,0-.07v0l-.21.09v-.07s0,0,0,0h0v0l.07-.06a.43.43,0,0,0,0-.05v-.08l.06.06h0l.1-.06,0,.11h0v.07h0l0,0h.06l.07.12Zm.08-2.38V25h0v0H149l0,.08Zm.29,1.05,0,0a.08.08,0,0,0,0-.11l0,0,0-.07h.08l.18,0,0,0,.12.05-.22.05h0c0,.06,0,.07,0,.08h0l-.07,0h0l0,0ZM149.4,29l-.05.05-.11.08,0,0,0-.1,0,0a.11.11,0,0,0,.05,0l0,0h0l0,0,.08-.06.07,0,0,.08Zm0,1,0-.1v0h0l0,0h.06l0,.1Zm.1-3.57a.17.17,0,0,1-.14-.06h0v-.06l-.08-.07.13,0h0l.16,0h0l0,.1Zm.17-.33-.08-.05.17,0,0,.1-.1,0Zm.15,1.87s0,0,0,.06v0l-.11,0V28a.2.2,0,0,0,0-.09v0h.14Zm0-4.07,0,.06h0l0,.1-.1,0,0-.06h0l0-.05v0h-.07v0l-.05-.06a.21.21,0,0,1-.06-.11h0l-.11,0,0-.1.25-.06v0a.35.35,0,0,0,.14.13C149.9,23.79,149.94,23.82,149.91,23.87Zm1.63,7.94.05.13-.12,0,0-.13Zm-.25-2.12.05,0h0v.11l-.11,0v-.1Zm-1.06,34.43-.19-.07.15-.07h.13Zm.26-37.6a.31.31,0,0,0,0-.1l0-.08.08,0,0,0,0,0h0v0a.14.14,0,0,1-.07.08l-.05,0Zm.24,8.28v0a.2.2,0,0,1,0-.07v0l.09,0,0,.13Zm.25-7.5-.11,0v0h-.32l.44-.1v.11Zm.12.94.07.16-.11,0,0-.16Zm0,5.55,0,0h0v0l0,0,0,0,.1,0v0h0l0,.2Zm.35,1.45s-.05,0-.06,0l-.09.06-.07,0,0-.09h0l0,0v0a.24.24,0,0,1,.15-.07h0l.3-.06Zm.61-3,0,0,.07-.07v.18h0l-.07,0Zm-.12.84s0-.05,0-.07a.15.15,0,0,1,0-.1h0s0,0,0-.06v0h0a.15.15,0,0,1,.08,0,.11.11,0,0,0,.05,0l0,0V33a.21.21,0,0,0,0,.14v0l-.21,0-.05-.06Z" style="fill:#e43d30"/><path d="M208.56,30.19a2,2,0,1,1-2,2,2,2,0,0,1,2-2Zm0,.4a1.57,1.57,0,0,0,0,3.14,1.51,1.51,0,0,0,1.5-1.56,1.53,1.53,0,0,0-1.51-1.58Zm-.3,2.59h-.46v-2a6.15,6.15,0,0,1,.76-.06,1,1,0,0,1,.67.16.49.49,0,0,1,.2.42.52.52,0,0,1-.4.47v0c.19.06.28.22.34.48a1.52,1.52,0,0,0,.15.48H209a1.51,1.51,0,0,1-.16-.48c0-.2-.15-.3-.4-.3h-.22Zm0-1.1h.22c.25,0,.45-.09.45-.29s-.13-.3-.42-.3l-.25,0Z" style="fill:#382f2d"/></svg>